<?xml version="1.0" encoding="utf-8"?>
<!-- Generator: Adobe Illustrator 16.0.0, SVG Export Plug-In . SVG Version: 6.00 Build 0)  -->
<!DOCTYPE svg PUBLIC "-//W3C//DTD SVG 1.1//EN" "http://www.w3.org/Graphics/SVG/1.1/DTD/svg11.dtd">
<svg version="1.1" id="Layer_1" xmlns="http://www.w3.org/2000/svg" xmlns:xlink="http://www.w3.org/1999/xlink" x="0px" y="0px"
	 width="827.958px" height="376.481px" viewBox="0 0 827.958 376.481" enable-background="new 0 0 827.958 376.481"
	 xml:space="preserve">
<g>
	<path d="M14.638,40.762c0-6.21,1.667-11.072,5.002-14.586c3.334-3.514,7.64-5.271,12.915-5.271c3.454,0,6.568,0.825,9.341,2.476
		s4.888,3.952,6.343,6.904c1.455,2.952,2.182,6.3,2.182,10.043c0,3.795-0.766,7.189-2.297,10.184
		c-1.531,2.995-3.701,5.262-6.508,6.802s-5.836,2.31-9.086,2.31c-3.522,0-6.67-0.851-9.443-2.552
		c-2.774-1.701-4.875-4.024-6.304-6.968C15.352,47.16,14.638,44.046,14.638,40.762z M19.742,40.839
		c0,4.509,1.212,8.061,3.637,10.655c2.424,2.595,5.466,3.893,9.125,3.893c3.726,0,6.793-1.311,9.201-3.931s3.612-6.338,3.612-11.153
		c0-3.046-0.515-5.704-1.544-7.977c-1.03-2.271-2.536-4.032-4.518-5.283c-1.982-1.25-4.207-1.876-6.674-1.876
		c-3.505,0-6.521,1.204-9.048,3.612C21.005,31.187,19.742,35.207,19.742,40.839z"/>
	<path d="M56.164,58.985V31.88h4.135v4.109c1.055-1.923,2.029-3.19,2.922-3.803c0.893-0.613,1.876-0.919,2.948-0.919
		c1.548,0,3.122,0.493,4.722,1.48l-1.582,4.262c-1.123-0.663-2.246-0.995-3.369-0.995c-1.004,0-1.906,0.303-2.706,0.906
		c-0.8,0.604-1.37,1.442-1.71,2.514c-0.51,1.634-0.766,3.42-0.766,5.36v14.19H56.164z"/>
	<path d="M72.779,61.231l4.466,0.663c0.187,1.379,0.706,2.383,1.557,3.012c1.14,0.851,2.696,1.276,4.67,1.276
		c2.127,0,3.769-0.426,4.926-1.276c1.157-0.851,1.939-2.041,2.348-3.573c0.238-0.936,0.349-2.9,0.332-5.896
		c-2.008,2.365-4.509,3.548-7.504,3.548c-3.726,0-6.61-1.344-8.652-4.032c-2.042-2.688-3.062-5.913-3.062-9.674
		c0-2.586,0.468-4.973,1.404-7.159c0.936-2.186,2.292-3.875,4.071-5.066c1.778-1.19,3.867-1.786,6.266-1.786
		c3.199,0,5.836,1.293,7.912,3.879V31.88h4.237v23.43c0,4.22-0.43,7.211-1.289,8.972c-0.859,1.761-2.221,3.152-4.083,4.173
		c-1.863,1.021-4.156,1.531-6.879,1.531c-3.233,0-5.845-0.727-7.835-2.182S72.711,64.158,72.779,61.231z M76.582,44.947
		c0,3.557,0.706,6.151,2.119,7.785c1.412,1.633,3.181,2.45,5.309,2.45c2.109,0,3.879-0.812,5.309-2.438s2.144-4.173,2.144-7.645
		c0-3.317-0.736-5.819-2.208-7.504c-1.472-1.684-3.246-2.526-5.322-2.526c-2.042,0-3.777,0.829-5.207,2.488
		S76.582,41.681,76.582,44.947z"/>
	<path d="M120.379,55.642c-1.702,1.446-3.339,2.468-4.913,3.063c-1.574,0.595-3.263,0.893-5.066,0.893
		c-2.978,0-5.266-0.728-6.865-2.182c-1.6-1.455-2.399-3.313-2.399-5.577c0-1.327,0.302-2.539,0.906-3.637
		c0.604-1.098,1.395-1.979,2.374-2.642c0.978-0.664,2.08-1.166,3.305-1.506c0.902-0.238,2.263-0.468,4.083-0.689
		c3.709-0.442,6.44-0.97,8.193-1.582c0.017-0.63,0.026-1.029,0.026-1.2c0-1.871-0.434-3.19-1.302-3.956
		c-1.174-1.037-2.918-1.557-5.232-1.557c-2.161,0-3.756,0.379-4.786,1.136c-1.029,0.758-1.791,2.098-2.284,4.02l-4.492-0.612
		c0.409-1.923,1.081-3.475,2.017-4.658c0.936-1.182,2.288-2.093,4.058-2.73c1.77-0.638,3.82-0.957,6.151-0.957
		c2.314,0,4.194,0.272,5.641,0.816c1.446,0.545,2.51,1.229,3.19,2.055c0.68,0.825,1.157,1.867,1.429,3.127
		c0.153,0.782,0.23,2.194,0.23,4.236v6.126c0,4.271,0.098,6.972,0.293,8.104c0.195,1.132,0.583,2.216,1.161,3.254h-4.798
		C120.821,58.032,120.515,56.918,120.379,55.642z M119.996,45.382c-1.667,0.681-4.169,1.259-7.503,1.735
		c-1.889,0.272-3.225,0.579-4.007,0.919c-0.783,0.341-1.387,0.838-1.812,1.493c-0.426,0.655-0.638,1.383-0.638,2.182
		c0,1.226,0.463,2.246,1.391,3.063c0.927,0.816,2.284,1.225,4.071,1.225c1.77,0,3.344-0.387,4.722-1.161
		c1.378-0.774,2.391-1.833,3.037-3.178c0.494-1.037,0.74-2.569,0.74-4.594V45.382z"/>
	<path d="M131.763,58.985V31.88h4.134v3.854c1.991-2.978,4.866-4.467,8.627-4.467c1.633,0,3.135,0.293,4.505,0.881
		c1.37,0.587,2.395,1.356,3.076,2.31c0.68,0.953,1.157,2.084,1.429,3.395c0.17,0.851,0.255,2.34,0.255,4.467v16.666h-4.594V42.497
		c0-1.871-0.179-3.271-0.536-4.198c-0.357-0.927-0.991-1.667-1.901-2.221c-0.911-0.553-1.978-0.829-3.203-0.829
		c-1.957,0-3.646,0.621-5.066,1.863c-1.421,1.242-2.131,3.599-2.131,7.069v14.804H131.763z"/>
	<path d="M174.514,61.231l4.466,0.663c0.187,1.379,0.706,2.383,1.557,3.012c1.14,0.851,2.696,1.276,4.67,1.276
		c2.127,0,3.769-0.426,4.926-1.276c1.157-0.851,1.939-2.041,2.348-3.573c0.238-0.936,0.349-2.9,0.332-5.896
		c-2.008,2.365-4.509,3.548-7.504,3.548c-3.726,0-6.61-1.344-8.652-4.032c-2.042-2.688-3.062-5.913-3.062-9.674
		c0-2.586,0.468-4.973,1.404-7.159c0.936-2.186,2.292-3.875,4.071-5.066c1.778-1.19,3.867-1.786,6.266-1.786
		c3.199,0,5.836,1.293,7.912,3.879V31.88h4.237v23.43c0,4.22-0.43,7.211-1.289,8.972c-0.859,1.761-2.221,3.152-4.083,4.173
		c-1.863,1.021-4.156,1.531-6.879,1.531c-3.233,0-5.845-0.727-7.835-2.182S174.445,64.158,174.514,61.231z M178.316,44.947
		c0,3.557,0.706,6.151,2.119,7.785c1.412,1.633,3.181,2.45,5.309,2.45c2.109,0,3.879-0.812,5.309-2.438s2.144-4.173,2.144-7.645
		c0-3.317-0.736-5.819-2.208-7.504c-1.472-1.684-3.246-2.526-5.322-2.526c-2.042,0-3.777,0.829-5.207,2.488
		S178.316,41.681,178.316,44.947z"/>
	<path d="M204.375,58.985V31.88h4.135v4.109c1.055-1.923,2.029-3.19,2.922-3.803c0.893-0.613,1.876-0.919,2.948-0.919
		c1.548,0,3.122,0.493,4.722,1.48l-1.582,4.262c-1.123-0.663-2.246-0.995-3.369-0.995c-1.004,0-1.906,0.303-2.706,0.906
		c-0.8,0.604-1.37,1.442-1.71,2.514c-0.51,1.634-0.766,3.42-0.766,5.36v14.19H204.375z"/>
	<path d="M221.858,26.852v-5.283h4.594v5.283H221.858z M221.858,58.985V31.88h4.594v27.105H221.858z"/>
	<path d="M233.446,58.985V31.88h4.134v3.854c1.991-2.978,4.866-4.467,8.627-4.467c1.633,0,3.135,0.293,4.505,0.881
		c1.37,0.587,2.395,1.356,3.076,2.31c0.68,0.953,1.157,2.084,1.429,3.395c0.17,0.851,0.255,2.34,0.255,4.467v16.666h-4.594V42.497
		c0-1.871-0.179-3.271-0.536-4.198c-0.357-0.927-0.991-1.667-1.901-2.221c-0.911-0.553-1.978-0.829-3.203-0.829
		c-1.957,0-3.646,0.621-5.066,1.863c-1.421,1.242-2.131,3.599-2.131,7.069v14.804H233.446z"/>
	<path d="M280.102,58.985v-3.42c-1.719,2.688-4.246,4.032-7.58,4.032c-2.161,0-4.147-0.596-5.959-1.786
		c-1.812-1.191-3.216-2.854-4.211-4.99c-0.996-2.135-1.493-4.59-1.493-7.363c0-2.705,0.451-5.159,1.353-7.363
		c0.902-2.203,2.254-3.893,4.058-5.066s3.82-1.761,6.049-1.761c1.633,0,3.088,0.345,4.364,1.033
		c1.276,0.689,2.314,1.587,3.114,2.693V21.568h4.569v37.417H280.102z M265.579,45.458c0,3.472,0.731,6.066,2.195,7.785
		s3.19,2.577,5.181,2.577c2.008,0,3.714-0.82,5.118-2.463c1.404-1.642,2.105-4.147,2.105-7.517c0-3.709-0.714-6.432-2.144-8.167
		c-1.429-1.735-3.19-2.604-5.283-2.604c-2.042,0-3.748,0.834-5.117,2.501C266.264,39.239,265.579,41.868,265.579,45.458z"/>
	<path d="M291.613,26.852v-5.283h4.594v5.283H291.613z M291.613,58.985V31.88h4.594v27.105H291.613z"/>
	<path d="M303.2,58.985V31.88h4.134v3.854c1.991-2.978,4.866-4.467,8.627-4.467c1.633,0,3.135,0.293,4.505,0.881
		c1.37,0.587,2.395,1.356,3.076,2.31c0.68,0.953,1.157,2.084,1.429,3.395c0.17,0.851,0.255,2.34,0.255,4.467v16.666h-4.594V42.497
		c0-1.871-0.179-3.271-0.536-4.198c-0.357-0.927-0.991-1.667-1.901-2.221c-0.911-0.553-1.978-0.829-3.203-0.829
		c-1.957,0-3.646,0.621-5.066,1.863c-1.421,1.242-2.131,3.599-2.131,7.069v14.804H303.2z"/>
	<path d="M331.429,61.231l4.466,0.663c0.187,1.379,0.706,2.383,1.557,3.012c1.14,0.851,2.696,1.276,4.67,1.276
		c2.127,0,3.769-0.426,4.926-1.276c1.157-0.851,1.939-2.041,2.348-3.573c0.238-0.936,0.349-2.9,0.332-5.896
		c-2.008,2.365-4.509,3.548-7.504,3.548c-3.726,0-6.61-1.344-8.652-4.032c-2.042-2.688-3.062-5.913-3.062-9.674
		c0-2.586,0.468-4.973,1.404-7.159c0.936-2.186,2.292-3.875,4.071-5.066c1.778-1.19,3.867-1.786,6.266-1.786
		c3.199,0,5.836,1.293,7.912,3.879V31.88h4.237v23.43c0,4.22-0.43,7.211-1.289,8.972c-0.859,1.761-2.221,3.152-4.083,4.173
		c-1.863,1.021-4.156,1.531-6.879,1.531c-3.233,0-5.845-0.727-7.835-2.182S331.36,64.158,331.429,61.231z M335.231,44.947
		c0,3.557,0.706,6.151,2.119,7.785c1.412,1.633,3.181,2.45,5.309,2.45c2.109,0,3.879-0.812,5.309-2.438s2.144-4.173,2.144-7.645
		c0-3.317-0.736-5.819-2.208-7.504c-1.472-1.684-3.246-2.526-5.322-2.526c-2.042,0-3.777,0.829-5.207,2.488
		S335.231,41.681,335.231,44.947z"/>
	<path d="M375.89,26.852v-5.283h4.594v5.283H375.89z M375.89,58.985V31.88h4.594v27.105H375.89z"/>
	<path d="M385.639,50.895l4.543-0.715c0.255,1.821,0.966,3.216,2.131,4.186c1.165,0.971,2.795,1.455,4.888,1.455
		c2.109,0,3.675-0.43,4.696-1.289c1.021-0.858,1.531-1.867,1.531-3.024c0-1.037-0.451-1.854-1.353-2.45
		c-0.63-0.408-2.195-0.927-4.696-1.557c-3.369-0.851-5.705-1.586-7.006-2.208c-1.301-0.621-2.289-1.48-2.96-2.577
		c-0.672-1.098-1.008-2.311-1.008-3.638c0-1.208,0.276-2.326,0.83-3.356c0.553-1.029,1.306-1.884,2.259-2.564
		c0.715-0.527,1.688-0.974,2.922-1.34c1.233-0.366,2.556-0.549,3.969-0.549c2.127,0,3.995,0.306,5.603,0.919
		c1.608,0.612,2.794,1.441,3.56,2.488c0.766,1.046,1.293,2.446,1.583,4.198l-4.492,0.612c-0.205-1.395-0.796-2.483-1.774-3.267
		c-0.979-0.782-2.361-1.174-4.147-1.174c-2.11,0-3.616,0.349-4.518,1.046c-0.902,0.698-1.353,1.515-1.353,2.45
		c0,0.597,0.187,1.132,0.562,1.608c0.374,0.494,0.961,0.902,1.761,1.225c0.459,0.171,1.812,0.562,4.058,1.175
		c3.25,0.867,5.517,1.578,6.802,2.131s2.293,1.357,3.024,2.412s1.098,2.365,1.098,3.931c0,1.531-0.447,2.974-1.34,4.326
		c-0.894,1.353-2.182,2.398-3.867,3.139s-3.59,1.11-5.717,1.11c-3.522,0-6.207-0.731-8.052-2.194
		C387.328,55.939,386.149,53.771,385.639,50.895z"/>
	<path d="M445.899,58.985v-3.981c-2.11,3.062-4.978,4.594-8.601,4.594c-1.6,0-3.093-0.306-4.479-0.919
		c-1.387-0.612-2.416-1.382-3.088-2.31c-0.672-0.927-1.145-2.062-1.417-3.407c-0.187-0.901-0.28-2.331-0.28-4.288V31.88h4.594
		v15.033c0,2.399,0.093,4.016,0.281,4.85c0.289,1.208,0.902,2.156,1.838,2.846c0.936,0.688,2.093,1.033,3.471,1.033
		c1.379,0,2.672-0.353,3.88-1.059s2.063-1.668,2.565-2.885c0.502-1.216,0.752-2.981,0.752-5.296V31.88h4.595v27.105H445.899z"/>
	<path d="M457.207,58.985V31.88h4.134v3.854c1.991-2.978,4.866-4.467,8.627-4.467c1.634,0,3.135,0.293,4.505,0.881
		c1.369,0.587,2.395,1.356,3.076,2.31c0.68,0.953,1.156,2.084,1.429,3.395c0.17,0.851,0.255,2.34,0.255,4.467v16.666h-4.594V42.497
		c0-1.871-0.179-3.271-0.536-4.198c-0.357-0.927-0.991-1.667-1.901-2.221c-0.91-0.553-1.979-0.829-3.203-0.829
		c-1.957,0-3.646,0.621-5.066,1.863c-1.421,1.242-2.131,3.599-2.131,7.069v14.804H457.207z"/>
	<path d="M484.439,50.895l4.543-0.715c0.255,1.821,0.965,3.216,2.131,4.186c1.165,0.971,2.795,1.455,4.888,1.455
		c2.109,0,3.675-0.43,4.696-1.289c1.021-0.858,1.531-1.867,1.531-3.024c0-1.037-0.451-1.854-1.353-2.45
		c-0.63-0.408-2.195-0.927-4.696-1.557c-3.369-0.851-5.705-1.586-7.006-2.208c-1.302-0.621-2.289-1.48-2.961-2.577
		c-0.672-1.098-1.008-2.311-1.008-3.638c0-1.208,0.275-2.326,0.829-3.356c0.553-1.029,1.306-1.884,2.259-2.564
		c0.715-0.527,1.688-0.974,2.922-1.34c1.234-0.366,2.557-0.549,3.969-0.549c2.127,0,3.995,0.306,5.604,0.919
		c1.607,0.612,2.794,1.441,3.56,2.488c0.767,1.046,1.293,2.446,1.583,4.198l-4.492,0.612c-0.205-1.395-0.796-2.483-1.773-3.267
		c-0.979-0.782-2.361-1.174-4.148-1.174c-2.109,0-3.615,0.349-4.518,1.046c-0.902,0.698-1.353,1.515-1.353,2.45
		c0,0.597,0.187,1.132,0.562,1.608c0.374,0.494,0.961,0.902,1.762,1.225c0.459,0.171,1.812,0.562,4.058,1.175
		c3.25,0.867,5.517,1.578,6.802,2.131s2.293,1.357,3.024,2.412s1.098,2.365,1.098,3.931c0,1.531-0.446,2.974-1.34,4.326
		s-2.183,2.398-3.866,3.139c-1.686,0.74-3.591,1.11-5.718,1.11c-3.522,0-6.206-0.731-8.052-2.194
		C486.126,55.939,484.949,53.771,484.439,50.895z"/>
	<path d="M512.437,58.985V21.568h4.595v21.338l10.872-11.026h5.947l-10.362,10.056l11.409,17.05h-5.666l-8.959-13.859l-3.241,3.114
		v10.745H512.437z"/>
	<path d="M538.573,26.852v-5.283h4.595v5.283H538.573z M538.573,58.985V31.88h4.595v27.105H538.573z"/>
	<path d="M550.058,58.985V21.568h4.594v37.417H550.058z"/>
	<path d="M561.671,58.985V21.568h4.594v37.417H561.671z"/>
	<path d="M591.941,50.257l4.748,0.587c-0.75,2.773-2.137,4.926-4.16,6.457c-2.025,1.531-4.611,2.297-7.76,2.297
		c-3.965,0-7.107-1.221-9.431-3.662c-2.322-2.441-3.483-5.866-3.483-10.273c0-4.56,1.174-8.099,3.521-10.617
		c2.349-2.519,5.395-3.777,9.138-3.777c3.624,0,6.585,1.233,8.882,3.7c2.297,2.468,3.445,5.938,3.445,10.414
		c0,0.272-0.008,0.681-0.025,1.225h-20.214c0.17,2.979,1.013,5.258,2.526,6.841c1.515,1.582,3.403,2.373,5.666,2.373
		c1.686,0,3.123-0.442,4.314-1.327C590.298,53.608,591.244,52.196,591.941,50.257z M576.857,42.829h15.135
		c-0.203-2.279-0.782-3.989-1.734-5.13c-1.465-1.77-3.361-2.654-5.692-2.654c-2.11,0-3.884,0.706-5.321,2.118
		C577.806,38.576,577.01,40.465,576.857,42.829z"/>
	<path d="M620.042,58.985v-3.42c-1.719,2.688-4.246,4.032-7.58,4.032c-2.162,0-4.148-0.596-5.96-1.786
		c-1.812-1.191-3.216-2.854-4.212-4.99c-0.995-2.135-1.492-4.59-1.492-7.363c0-2.705,0.45-5.159,1.352-7.363
		c0.902-2.203,2.255-3.893,4.059-5.066s3.82-1.761,6.049-1.761c1.634,0,3.088,0.345,4.365,1.033
		c1.275,0.689,2.313,1.587,3.113,2.693V21.568h4.568v37.417H620.042z M605.519,45.458c0,3.472,0.732,6.066,2.195,7.785
		s3.19,2.577,5.182,2.577c2.008,0,3.713-0.82,5.117-2.463c1.404-1.642,2.105-4.147,2.105-7.517c0-3.709-0.715-6.432-2.145-8.167
		c-1.429-1.735-3.189-2.604-5.283-2.604c-2.041,0-3.747,0.834-5.117,2.501C606.205,39.239,605.519,41.868,605.519,45.458z"/>
	<path d="M645.949,58.985V21.568h4.594v37.417H645.949z"/>
	<path d="M675.35,55.642c-1.702,1.446-3.339,2.468-4.913,3.063c-1.574,0.595-3.263,0.893-5.066,0.893
		c-2.978,0-5.266-0.728-6.865-2.182c-1.6-1.455-2.399-3.313-2.399-5.577c0-1.327,0.302-2.539,0.906-3.637
		c0.604-1.098,1.396-1.979,2.374-2.642c0.978-0.664,2.08-1.166,3.305-1.506c0.902-0.238,2.263-0.468,4.084-0.689
		c3.709-0.442,6.439-0.97,8.192-1.582c0.017-0.63,0.026-1.029,0.026-1.2c0-1.871-0.435-3.19-1.303-3.956
		c-1.174-1.037-2.918-1.557-5.232-1.557c-2.16,0-3.756,0.379-4.785,1.136c-1.029,0.758-1.791,2.098-2.284,4.02l-4.492-0.612
		c0.409-1.923,1.081-3.475,2.017-4.658c0.936-1.182,2.288-2.093,4.059-2.73c1.77-0.638,3.819-0.957,6.15-0.957
		c2.314,0,4.194,0.272,5.641,0.816c1.446,0.545,2.51,1.229,3.19,2.055s1.157,1.867,1.429,3.127c0.154,0.782,0.23,2.194,0.23,4.236
		v6.126c0,4.271,0.098,6.972,0.293,8.104s0.583,2.216,1.162,3.254h-4.799C675.792,58.032,675.486,56.918,675.35,55.642z
		 M674.967,45.382c-1.667,0.681-4.169,1.259-7.503,1.735c-1.889,0.272-3.225,0.579-4.008,0.919
		c-0.783,0.341-1.387,0.838-1.812,1.493s-0.638,1.383-0.638,2.182c0,1.226,0.464,2.246,1.392,3.063
		c0.927,0.816,2.283,1.225,4.07,1.225c1.77,0,3.344-0.387,4.722-1.161s2.391-1.833,3.037-3.178c0.493-1.037,0.74-2.569,0.74-4.594
		V45.382z"/>
	<path d="M690.97,58.985h-4.262V21.568h4.594v13.349c1.939-2.433,4.416-3.649,7.428-3.649c1.667,0,3.245,0.336,4.734,1.008
		c1.488,0.673,2.713,1.617,3.675,2.833c0.962,1.217,1.714,2.685,2.259,4.403s0.816,3.556,0.816,5.513
		c0,4.646-1.148,8.235-3.445,10.771s-5.053,3.803-8.27,3.803c-3.199,0-5.709-1.335-7.529-4.007V58.985z M690.919,45.229
		c0,3.25,0.442,5.599,1.327,7.044c1.446,2.365,3.403,3.548,5.87,3.548c2.008,0,3.743-0.871,5.207-2.616
		c1.463-1.743,2.195-4.343,2.195-7.797c0-3.539-0.702-6.151-2.105-7.836c-1.404-1.685-3.102-2.526-5.092-2.526
		c-2.009,0-3.744,0.872-5.207,2.616C691.651,39.405,690.919,41.928,690.919,45.229z"/>
	<path d="M714.094,45.433c0-5.02,1.396-8.737,4.187-11.153c2.33-2.008,5.172-3.012,8.523-3.012c3.727,0,6.772,1.221,9.138,3.662
		c2.365,2.442,3.548,5.815,3.548,10.12c0,3.488-0.523,6.232-1.57,8.231c-1.046,1.999-2.568,3.552-4.568,4.657
		c-1.999,1.106-4.182,1.659-6.547,1.659c-3.794,0-6.861-1.216-9.2-3.649C715.264,53.515,714.094,50.01,714.094,45.433z
		 M718.816,45.433c0,3.471,0.758,6.07,2.271,7.797c1.515,1.728,3.42,2.591,5.717,2.591c2.281,0,4.178-0.867,5.692-2.604
		c1.515-1.735,2.271-4.381,2.271-7.938c0-3.352-0.762-5.892-2.284-7.618c-1.523-1.727-3.416-2.591-5.68-2.591
		c-2.297,0-4.202,0.859-5.717,2.578C719.574,39.367,718.816,41.962,718.816,45.433z"/>
	<path d="M762.638,58.985v-3.981c-2.109,3.062-4.977,4.594-8.601,4.594c-1.6,0-3.093-0.306-4.479-0.919
		c-1.387-0.612-2.416-1.382-3.088-2.31c-0.672-0.927-1.145-2.062-1.417-3.407c-0.187-0.901-0.28-2.331-0.28-4.288V31.88h4.594
		v15.033c0,2.399,0.094,4.016,0.281,4.85c0.289,1.208,0.901,2.156,1.838,2.846c0.936,0.688,2.092,1.033,3.471,1.033
		c1.378,0,2.671-0.353,3.879-1.059c1.209-0.706,2.063-1.668,2.565-2.885c0.502-1.216,0.753-2.981,0.753-5.296V31.88h4.594v27.105
		H762.638z"/>
	<path d="M773.894,58.985V31.88h4.135v4.109c1.055-1.923,2.029-3.19,2.923-3.803c0.894-0.613,1.876-0.919,2.948-0.919
		c1.548,0,3.121,0.493,4.721,1.48l-1.582,4.262c-1.123-0.663-2.246-0.995-3.369-0.995c-1.004,0-1.905,0.303-2.705,0.906
		c-0.8,0.604-1.369,1.442-1.71,2.514c-0.511,1.634-0.766,3.42-0.766,5.36v14.19H773.894z"/>
	<path d="M789.769,58.985v-5.232h5.232v5.232H789.769z"/>
	<path d="M25.664,129.985V96.984H13.336v-4.416h29.658v4.416H30.615v33.001H25.664z"/>
	<path d="M47.486,129.985V92.568h4.594v13.426c2.144-2.484,4.85-3.727,8.117-3.727c2.007,0,3.751,0.396,5.232,1.187
		s2.54,1.885,3.178,3.28c0.638,1.395,0.957,3.42,0.957,6.074v17.177h-4.594v-17.177c0-2.297-0.498-3.969-1.493-5.016
		c-0.995-1.046-2.403-1.569-4.224-1.569c-1.362,0-2.642,0.354-3.841,1.059c-1.2,0.707-2.055,1.664-2.565,2.872
		c-0.511,1.208-0.766,2.875-0.766,5.002v14.829H47.486z"/>
	<path d="M95.112,121.257l4.747,0.587c-0.749,2.773-2.136,4.926-4.16,6.457c-2.025,1.531-4.611,2.297-7.759,2.297
		c-3.965,0-7.108-1.221-9.431-3.662c-2.322-2.441-3.484-5.866-3.484-10.273c0-4.56,1.174-8.099,3.522-10.617
		s5.394-3.777,9.137-3.777c3.624,0,6.585,1.233,8.882,3.7c2.297,2.468,3.446,5.938,3.446,10.414c0,0.272-0.009,0.681-0.026,1.225
		H79.772c0.17,2.979,1.012,5.258,2.527,6.841c1.514,1.582,3.403,2.373,5.666,2.373c1.685,0,3.122-0.442,4.313-1.327
		C93.469,124.608,94.414,123.196,95.112,121.257z M80.027,113.829h15.135c-0.204-2.279-0.783-3.989-1.735-5.13
		c-1.464-1.77-3.361-2.654-5.692-2.654c-2.11,0-3.884,0.706-5.321,2.118C80.976,109.576,80.181,111.465,80.027,113.829z"/>
	<path d="M118.439,116.433c0-5.02,1.395-8.737,4.186-11.153c2.331-2.008,5.172-3.012,8.524-3.012c3.727,0,6.772,1.221,9.137,3.662
		c2.365,2.442,3.548,5.815,3.548,10.12c0,3.488-0.523,6.232-1.57,8.231c-1.046,1.999-2.569,3.552-4.568,4.657
		c-2,1.106-4.182,1.659-6.547,1.659c-3.794,0-6.861-1.216-9.201-3.649C119.609,124.515,118.439,121.01,118.439,116.433z
		 M123.162,116.433c0,3.471,0.757,6.07,2.271,7.797c1.514,1.728,3.42,2.591,5.717,2.591c2.28,0,4.177-0.867,5.692-2.604
		c1.514-1.735,2.271-4.381,2.271-7.938c0-3.352-0.762-5.892-2.284-7.618c-1.523-1.727-3.416-2.591-5.679-2.591
		c-2.297,0-4.203,0.859-5.717,2.578C123.918,110.367,123.162,112.962,123.162,116.433z"/>
	<path d="M149.169,129.985V102.88h4.135v4.109c1.055-1.923,2.029-3.19,2.922-3.803c0.893-0.613,1.876-0.919,2.948-0.919
		c1.548,0,3.122,0.493,4.722,1.48l-1.582,4.262c-1.123-0.663-2.246-0.995-3.369-0.995c-1.004,0-1.906,0.303-2.706,0.906
		c-0.8,0.604-1.37,1.442-1.71,2.514c-0.51,1.634-0.766,3.42-0.766,5.36v14.19H149.169z"/>
	<path d="M165.785,132.231l4.466,0.663c0.187,1.379,0.706,2.383,1.557,3.012c1.14,0.851,2.696,1.276,4.67,1.276
		c2.127,0,3.769-0.426,4.926-1.276c1.157-0.851,1.939-2.041,2.348-3.573c0.238-0.936,0.349-2.9,0.332-5.896
		c-2.008,2.365-4.509,3.548-7.504,3.548c-3.726,0-6.61-1.344-8.652-4.032c-2.042-2.688-3.062-5.913-3.062-9.674
		c0-2.586,0.468-4.973,1.404-7.159c0.936-2.186,2.292-3.875,4.071-5.066c1.778-1.19,3.867-1.786,6.266-1.786
		c3.199,0,5.836,1.293,7.912,3.879v-3.267h4.237v23.43c0,4.22-0.43,7.211-1.289,8.972c-0.859,1.761-2.221,3.152-4.083,4.173
		c-1.863,1.021-4.156,1.531-6.879,1.531c-3.233,0-5.845-0.727-7.835-2.182S165.716,135.158,165.785,132.231z M169.587,115.947
		c0,3.557,0.706,6.151,2.119,7.785c1.412,1.633,3.181,2.45,5.309,2.45c2.109,0,3.879-0.812,5.309-2.438s2.144-4.173,2.144-7.645
		c0-3.317-0.736-5.819-2.208-7.504c-1.472-1.684-3.246-2.526-5.322-2.526c-2.042,0-3.777,0.829-5.207,2.488
		S169.587,112.681,169.587,115.947z"/>
	<path d="M213.385,126.642c-1.702,1.446-3.339,2.468-4.913,3.063c-1.574,0.595-3.263,0.893-5.066,0.893
		c-2.978,0-5.266-0.728-6.865-2.182c-1.6-1.455-2.399-3.313-2.399-5.577c0-1.327,0.302-2.539,0.906-3.637
		c0.604-1.098,1.395-1.979,2.374-2.642c0.978-0.664,2.08-1.166,3.305-1.506c0.902-0.238,2.263-0.468,4.083-0.689
		c3.709-0.442,6.44-0.97,8.193-1.582c0.017-0.63,0.026-1.029,0.026-1.2c0-1.871-0.434-3.19-1.302-3.956
		c-1.174-1.037-2.918-1.557-5.232-1.557c-2.161,0-3.756,0.379-4.786,1.136c-1.029,0.758-1.791,2.098-2.284,4.02l-4.492-0.612
		c0.409-1.923,1.081-3.475,2.017-4.658c0.936-1.182,2.288-2.093,4.058-2.73c1.77-0.638,3.82-0.957,6.151-0.957
		c2.314,0,4.194,0.272,5.641,0.816c1.446,0.545,2.51,1.229,3.19,2.055c0.68,0.825,1.157,1.867,1.429,3.127
		c0.153,0.782,0.23,2.194,0.23,4.236v6.126c0,4.271,0.098,6.972,0.293,8.104c0.195,1.132,0.583,2.216,1.161,3.254h-4.798
		C213.827,129.032,213.521,127.918,213.385,126.642z M213.002,116.382c-1.667,0.681-4.169,1.259-7.503,1.735
		c-1.889,0.272-3.225,0.579-4.007,0.919c-0.783,0.341-1.387,0.838-1.812,1.493c-0.426,0.655-0.638,1.383-0.638,2.182
		c0,1.226,0.463,2.246,1.391,3.063c0.927,0.816,2.284,1.225,4.071,1.225c1.77,0,3.344-0.387,4.722-1.161
		c1.378-0.774,2.391-1.833,3.037-3.178c0.494-1.037,0.74-2.569,0.74-4.594V116.382z"/>
	<path d="M224.768,129.985V102.88h4.134v3.854c1.991-2.978,4.866-4.467,8.627-4.467c1.633,0,3.135,0.293,4.505,0.881
		c1.37,0.587,2.395,1.356,3.076,2.31c0.68,0.953,1.157,2.084,1.429,3.395c0.17,0.851,0.255,2.34,0.255,4.467v16.666H242.2v-16.488
		c0-1.871-0.179-3.271-0.536-4.198c-0.357-0.927-0.991-1.667-1.901-2.221c-0.911-0.553-1.978-0.829-3.203-0.829
		c-1.957,0-3.646,0.621-5.066,1.863c-1.421,1.242-2.131,3.599-2.131,7.069v14.804H224.768z"/>
	<path d="M267.519,132.231l4.466,0.663c0.187,1.379,0.706,2.383,1.557,3.012c1.14,0.851,2.696,1.276,4.67,1.276
		c2.127,0,3.769-0.426,4.926-1.276c1.157-0.851,1.939-2.041,2.348-3.573c0.238-0.936,0.349-2.9,0.332-5.896
		c-2.008,2.365-4.509,3.548-7.504,3.548c-3.726,0-6.61-1.344-8.652-4.032c-2.042-2.688-3.062-5.913-3.062-9.674
		c0-2.586,0.468-4.973,1.404-7.159c0.936-2.186,2.292-3.875,4.071-5.066c1.778-1.19,3.867-1.786,6.266-1.786
		c3.199,0,5.836,1.293,7.912,3.879v-3.267h4.237v23.43c0,4.22-0.43,7.211-1.289,8.972c-0.859,1.761-2.221,3.152-4.083,4.173
		c-1.863,1.021-4.156,1.531-6.879,1.531c-3.233,0-5.845-0.727-7.835-2.182S267.451,135.158,267.519,132.231z M271.322,115.947
		c0,3.557,0.706,6.151,2.119,7.785c1.412,1.633,3.181,2.45,5.309,2.45c2.109,0,3.879-0.812,5.309-2.438s2.144-4.173,2.144-7.645
		c0-3.317-0.736-5.819-2.208-7.504c-1.472-1.684-3.246-2.526-5.322-2.526c-2.042,0-3.777,0.829-5.207,2.488
		S271.322,112.681,271.322,115.947z"/>
	<path d="M297.381,129.985V102.88h4.135v4.109c1.055-1.923,2.029-3.19,2.922-3.803c0.893-0.613,1.876-0.919,2.948-0.919
		c1.548,0,3.122,0.493,4.722,1.48l-1.582,4.262c-1.123-0.663-2.246-0.995-3.369-0.995c-1.004,0-1.906,0.303-2.706,0.906
		c-0.8,0.604-1.37,1.442-1.71,2.514c-0.51,1.634-0.766,3.42-0.766,5.36v14.19H297.381z"/>
	<path d="M314.864,97.852v-5.283h4.594v5.283H314.864z M314.864,129.985V102.88h4.594v27.105H314.864z"/>
	<path d="M326.452,129.985V102.88h4.134v3.854c1.991-2.978,4.866-4.467,8.627-4.467c1.633,0,3.135,0.293,4.505,0.881
		c1.37,0.587,2.395,1.356,3.076,2.31c0.68,0.953,1.157,2.084,1.429,3.395c0.17,0.851,0.255,2.34,0.255,4.467v16.666h-4.594v-16.488
		c0-1.871-0.179-3.271-0.536-4.198c-0.357-0.927-0.991-1.667-1.901-2.221c-0.911-0.553-1.978-0.829-3.203-0.829
		c-1.957,0-3.646,0.621-5.066,1.863c-1.421,1.242-2.131,3.599-2.131,7.069v14.804H326.452z"/>
	<path d="M373.107,129.985v-3.42c-1.719,2.688-4.246,4.032-7.58,4.032c-2.161,0-4.147-0.596-5.959-1.786
		c-1.812-1.191-3.216-2.854-4.211-4.99c-0.996-2.135-1.493-4.59-1.493-7.363c0-2.705,0.451-5.159,1.353-7.363
		c0.902-2.203,2.254-3.893,4.058-5.066s3.82-1.761,6.049-1.761c1.633,0,3.088,0.345,4.364,1.033
		c1.276,0.689,2.314,1.587,3.114,2.693V92.568h4.569v37.417H373.107z M358.585,116.458c0,3.472,0.731,6.066,2.195,7.785
		s3.19,2.577,5.181,2.577c2.008,0,3.714-0.82,5.118-2.463c1.404-1.642,2.105-4.147,2.105-7.517c0-3.709-0.714-6.432-2.144-8.167
		c-1.429-1.735-3.19-2.604-5.283-2.604c-2.042,0-3.748,0.834-5.117,2.501C359.27,110.239,358.585,112.868,358.585,116.458z"/>
	<path d="M403.148,121.257l4.747,0.587c-0.749,2.773-2.136,4.926-4.16,6.457c-2.025,1.531-4.611,2.297-7.759,2.297
		c-3.965,0-7.108-1.221-9.431-3.662c-2.322-2.441-3.484-5.866-3.484-10.273c0-4.56,1.174-8.099,3.522-10.617
		s5.394-3.777,9.137-3.777c3.624,0,6.585,1.233,8.882,3.7c2.297,2.468,3.446,5.938,3.446,10.414c0,0.272-0.009,0.681-0.026,1.225
		h-20.214c0.17,2.979,1.012,5.258,2.527,6.841c1.514,1.582,3.403,2.373,5.666,2.373c1.685,0,3.122-0.442,4.313-1.327
		C401.505,124.608,402.45,123.196,403.148,121.257z M388.063,113.829h15.135c-0.204-2.279-0.783-3.989-1.735-5.13
		c-1.464-1.77-3.361-2.654-5.692-2.654c-2.11,0-3.884,0.706-5.321,2.118C389.012,109.576,388.217,111.465,388.063,113.829z"/>
	<path d="M413.612,129.985V102.88h4.135v4.109c1.055-1.923,2.029-3.19,2.922-3.803c0.893-0.613,1.876-0.919,2.948-0.919
		c1.548,0,3.122,0.493,4.722,1.48l-1.582,4.262c-1.123-0.663-2.246-0.995-3.369-0.995c-1.004,0-1.906,0.303-2.706,0.906
		c-0.8,0.604-1.37,1.442-1.71,2.514c-0.51,1.634-0.766,3.42-0.766,5.36v14.19H413.612z"/>
	<path d="M463.28,120.057l4.518,0.587c-0.493,3.114-1.757,5.552-3.79,7.312c-2.033,1.762-4.53,2.642-7.49,2.642
		c-3.711,0-6.691-1.212-8.946-3.637s-3.382-5.899-3.382-10.426c0-2.927,0.484-5.488,1.455-7.683
		c0.969-2.195,2.445-3.842,4.428-4.938c1.982-1.098,4.139-1.646,6.471-1.646c2.943,0,5.351,0.744,7.223,2.233
		c1.871,1.489,3.07,3.603,3.599,6.342l-4.467,0.689c-0.425-1.82-1.179-3.19-2.259-4.109s-2.387-1.378-3.918-1.378
		c-2.314,0-4.194,0.829-5.641,2.488c-1.445,1.659-2.169,4.284-2.169,7.874c0,3.642,0.697,6.287,2.093,7.938
		c1.395,1.65,3.216,2.476,5.462,2.476c1.804,0,3.31-0.553,4.518-1.659C462.191,124.056,462.957,122.354,463.28,120.057z"/>
	<path d="M471.677,129.985V102.88h4.135v4.109c1.055-1.923,2.029-3.19,2.922-3.803c0.894-0.613,1.877-0.919,2.948-0.919
		c1.548,0,3.122,0.493,4.722,1.48l-1.582,4.262c-1.123-0.663-2.246-0.995-3.369-0.995c-1.004,0-1.906,0.303-2.705,0.906
		c-0.801,0.604-1.37,1.442-1.711,2.514c-0.51,1.634-0.766,3.42-0.766,5.36v14.19H471.677z"/>
	<path d="M506.822,126.642c-1.701,1.446-3.339,2.468-4.912,3.063c-1.574,0.595-3.264,0.893-5.066,0.893
		c-2.979,0-5.267-0.728-6.865-2.182c-1.6-1.455-2.4-3.313-2.4-5.577c0-1.327,0.303-2.539,0.906-3.637s1.396-1.979,2.374-2.642
		c0.978-0.664,2.08-1.166,3.306-1.506c0.901-0.238,2.262-0.468,4.083-0.689c3.71-0.442,6.44-0.97,8.192-1.582
		c0.018-0.63,0.026-1.029,0.026-1.2c0-1.871-0.435-3.19-1.302-3.956c-1.174-1.037-2.918-1.557-5.232-1.557
		c-2.161,0-3.756,0.379-4.785,1.136c-1.029,0.758-1.791,2.098-2.285,4.02l-4.492-0.612c0.409-1.923,1.081-3.475,2.018-4.658
		c0.936-1.182,2.287-2.093,4.058-2.73c1.77-0.638,3.819-0.957,6.151-0.957c2.313,0,4.193,0.272,5.641,0.816
		c1.445,0.545,2.51,1.229,3.189,2.055c0.681,0.825,1.157,1.867,1.43,3.127c0.153,0.782,0.23,2.194,0.23,4.236v6.126
		c0,4.271,0.098,6.972,0.293,8.104s0.582,2.216,1.161,3.254h-4.798C507.265,129.032,506.958,127.918,506.822,126.642z
		 M506.439,116.382c-1.667,0.681-4.168,1.259-7.503,1.735c-1.889,0.272-3.225,0.579-4.007,0.919
		c-0.783,0.341-1.387,0.838-1.812,1.493s-0.639,1.383-0.639,2.182c0,1.226,0.464,2.246,1.392,3.063
		c0.927,0.816,2.284,1.225,4.071,1.225c1.77,0,3.344-0.387,4.721-1.161c1.379-0.774,2.391-1.833,3.037-3.178
		c0.494-1.037,0.74-2.569,0.74-4.594V116.382z"/>
	<path d="M518.206,129.985V102.88h4.134v3.854c1.992-2.978,4.867-4.467,8.627-4.467c1.634,0,3.135,0.293,4.506,0.881
		c1.369,0.587,2.395,1.356,3.075,2.31s1.157,2.084,1.429,3.395c0.17,0.851,0.256,2.34,0.256,4.467v16.666h-4.594v-16.488
		c0-1.871-0.18-3.271-0.537-4.198c-0.357-0.927-0.99-1.667-1.9-2.221c-0.911-0.553-1.979-0.829-3.203-0.829
		c-1.957,0-3.646,0.621-5.066,1.863c-1.422,1.242-2.132,3.599-2.132,7.069v14.804H518.206z"/>
	<path d="M547.302,129.985V92.568h4.594v21.338l10.873-11.026h5.946l-10.362,10.056l11.408,17.05h-5.666l-8.958-13.859l-3.241,3.114
		v10.745H547.302z"/>
	<path d="M571.574,121.895l4.543-0.715c0.256,1.821,0.967,3.216,2.132,4.186c1.165,0.971,2.795,1.455,4.888,1.455
		c2.109,0,3.676-0.43,4.696-1.289c1.021-0.858,1.531-1.867,1.531-3.024c0-1.037-0.451-1.854-1.353-2.45
		c-0.63-0.408-2.195-0.927-4.696-1.557c-3.369-0.851-5.704-1.586-7.007-2.208c-1.301-0.621-2.288-1.48-2.96-2.577
		c-0.673-1.098-1.009-2.311-1.009-3.638c0-1.208,0.277-2.326,0.83-3.356c0.553-1.029,1.306-1.884,2.259-2.564
		c0.715-0.527,1.688-0.974,2.923-1.34c1.232-0.366,2.556-0.549,3.969-0.549c2.127,0,3.994,0.306,5.602,0.919
		c1.608,0.612,2.795,1.441,3.561,2.488c0.766,1.046,1.293,2.446,1.582,4.198l-4.491,0.612c-0.204-1.395-0.796-2.483-1.774-3.267
		c-0.979-0.782-2.36-1.174-4.146-1.174c-2.111,0-3.617,0.349-4.518,1.046c-0.902,0.698-1.354,1.515-1.354,2.45
		c0,0.597,0.188,1.132,0.562,1.608c0.374,0.494,0.962,0.902,1.761,1.225c0.46,0.171,1.812,0.562,4.059,1.175
		c3.25,0.867,5.518,1.578,6.802,2.131s2.293,1.357,3.024,2.412s1.098,2.365,1.098,3.931c0,1.531-0.447,2.974-1.34,4.326
		c-0.894,1.353-2.182,2.398-3.867,3.139c-1.684,0.74-3.59,1.11-5.717,1.11c-3.521,0-6.207-0.731-8.053-2.194
		C573.263,126.939,572.084,124.771,571.574,121.895z"/>
	<path d="M631.757,126.642c-1.702,1.446-3.34,2.468-4.914,3.063c-1.573,0.595-3.262,0.893-5.066,0.893
		c-2.977,0-5.266-0.728-6.865-2.182c-1.6-1.455-2.398-3.313-2.398-5.577c0-1.327,0.301-2.539,0.906-3.637
		c0.604-1.098,1.395-1.979,2.373-2.642c0.979-0.664,2.08-1.166,3.305-1.506c0.902-0.238,2.264-0.468,4.084-0.689
		c3.709-0.442,6.44-0.97,8.193-1.582c0.017-0.63,0.025-1.029,0.025-1.2c0-1.871-0.434-3.19-1.302-3.956
		c-1.175-1.037-2.919-1.557-5.232-1.557c-2.161,0-3.757,0.379-4.786,1.136c-1.029,0.758-1.791,2.098-2.283,4.02l-4.492-0.612
		c0.408-1.923,1.08-3.475,2.016-4.658c0.936-1.182,2.289-2.093,4.059-2.73s3.82-0.957,6.15-0.957c2.314,0,4.195,0.272,5.641,0.816
		c1.447,0.545,2.51,1.229,3.191,2.055c0.68,0.825,1.156,1.867,1.429,3.127c0.153,0.782,0.229,2.194,0.229,4.236v6.126
		c0,4.271,0.098,6.972,0.294,8.104c0.195,1.132,0.583,2.216,1.161,3.254h-4.799C632.199,129.032,631.893,127.918,631.757,126.642z
		 M631.375,116.382c-1.668,0.681-4.17,1.259-7.504,1.735c-1.889,0.272-3.225,0.579-4.008,0.919
		c-0.782,0.341-1.387,0.838-1.812,1.493c-0.426,0.655-0.638,1.383-0.638,2.182c0,1.226,0.463,2.246,1.391,3.063
		c0.928,0.816,2.284,1.225,4.07,1.225c1.77,0,3.344-0.387,4.723-1.161c1.378-0.774,2.391-1.833,3.037-3.178
		c0.493-1.037,0.74-2.569,0.74-4.594V116.382z"/>
	<path d="M657.664,129.985V92.568h4.594v13.426c2.144-2.484,4.85-3.727,8.116-3.727c2.007,0,3.751,0.396,5.231,1.187
		s2.54,1.885,3.178,3.28c0.639,1.395,0.957,3.42,0.957,6.074v17.177h-4.594v-17.177c0-2.297-0.498-3.969-1.493-5.016
		c-0.995-1.046-2.403-1.569-4.224-1.569c-1.361,0-2.643,0.354-3.842,1.059c-1.199,0.707-2.055,1.664-2.564,2.872
		c-0.511,1.208-0.766,2.875-0.766,5.002v14.829H657.664z"/>
	<path d="M704.421,126.642c-1.702,1.446-3.34,2.468-4.914,3.063c-1.573,0.595-3.262,0.893-5.066,0.893
		c-2.977,0-5.266-0.728-6.865-2.182c-1.6-1.455-2.398-3.313-2.398-5.577c0-1.327,0.301-2.539,0.906-3.637
		c0.604-1.098,1.395-1.979,2.373-2.642c0.979-0.664,2.08-1.166,3.305-1.506c0.902-0.238,2.264-0.468,4.084-0.689
		c3.709-0.442,6.44-0.97,8.193-1.582c0.017-0.63,0.025-1.029,0.025-1.2c0-1.871-0.434-3.19-1.302-3.956
		c-1.175-1.037-2.919-1.557-5.232-1.557c-2.161,0-3.757,0.379-4.786,1.136c-1.029,0.758-1.791,2.098-2.283,4.02l-4.492-0.612
		c0.408-1.923,1.08-3.475,2.016-4.658c0.936-1.182,2.289-2.093,4.059-2.73s3.82-0.957,6.15-0.957c2.314,0,4.195,0.272,5.641,0.816
		c1.447,0.545,2.51,1.229,3.191,2.055c0.68,0.825,1.156,1.867,1.429,3.127c0.153,0.782,0.229,2.194,0.229,4.236v6.126
		c0,4.271,0.098,6.972,0.294,8.104c0.195,1.132,0.583,2.216,1.161,3.254h-4.799C704.863,129.032,704.557,127.918,704.421,126.642z
		 M704.039,116.382c-1.668,0.681-4.17,1.259-7.504,1.735c-1.889,0.272-3.225,0.579-4.008,0.919
		c-0.782,0.341-1.387,0.838-1.812,1.493c-0.426,0.655-0.638,1.383-0.638,2.182c0,1.226,0.463,2.246,1.391,3.063
		c0.928,0.816,2.284,1.225,4.07,1.225c1.77,0,3.344-0.387,4.723-1.161c1.378-0.774,2.391-1.833,3.037-3.178
		c0.493-1.037,0.74-2.569,0.74-4.594V116.382z"/>
	<path d="M715.804,129.985V102.88h4.135v3.854c1.991-2.978,4.866-4.467,8.627-4.467c1.633,0,3.135,0.293,4.505,0.881
		c1.37,0.587,2.395,1.356,3.075,2.31s1.157,2.084,1.43,3.395c0.17,0.851,0.255,2.34,0.255,4.467v16.666h-4.594v-16.488
		c0-1.871-0.179-3.271-0.536-4.198c-0.357-0.927-0.991-1.667-1.901-2.221c-0.911-0.553-1.978-0.829-3.203-0.829
		c-1.957,0-3.646,0.621-5.066,1.863s-2.132,3.599-2.132,7.069v14.804H715.804z"/>
	<path d="M762.46,129.985v-3.42c-1.719,2.688-4.246,4.032-7.58,4.032c-2.162,0-4.148-0.596-5.96-1.786
		c-1.812-1.191-3.216-2.854-4.212-4.99c-0.995-2.135-1.492-4.59-1.492-7.363c0-2.705,0.45-5.159,1.352-7.363
		c0.902-2.203,2.255-3.893,4.059-5.066s3.82-1.761,6.049-1.761c1.634,0,3.088,0.345,4.365,1.033
		c1.275,0.689,2.313,1.587,3.113,2.693V92.568h4.568v37.417H762.46z M747.937,116.458c0,3.472,0.732,6.066,2.195,7.785
		s3.19,2.577,5.182,2.577c2.008,0,3.713-0.82,5.117-2.463c1.404-1.642,2.105-4.147,2.105-7.517c0-3.709-0.715-6.432-2.145-8.167
		c-1.429-1.735-3.189-2.604-5.283-2.604c-2.041,0-3.747,0.834-5.117,2.501C748.623,110.239,747.937,112.868,747.937,116.458z"/>
	<path d="M773.843,129.985V92.568h4.594v37.417H773.843z"/>
	<path d="M804.114,121.257l4.747,0.587c-0.749,2.773-2.136,4.926-4.16,6.457c-2.025,1.531-4.611,2.297-7.76,2.297
		c-3.965,0-7.107-1.221-9.43-3.662s-3.484-5.866-3.484-10.273c0-4.56,1.174-8.099,3.522-10.617s5.394-3.777,9.138-3.777
		c3.623,0,6.584,1.233,8.881,3.7c2.297,2.468,3.446,5.938,3.446,10.414c0,0.272-0.009,0.681-0.026,1.225h-20.213
		c0.17,2.979,1.012,5.258,2.526,6.841c1.515,1.582,3.403,2.373,5.666,2.373c1.685,0,3.122-0.442,4.313-1.327
		C802.471,124.608,803.416,123.196,804.114,121.257z M789.029,113.829h15.136c-0.204-2.279-0.782-3.989-1.735-5.13
		c-1.464-1.77-3.361-2.654-5.691-2.654c-2.11,0-3.885,0.706-5.322,2.118C789.978,109.576,789.183,111.465,789.029,113.829z"/>
	<path d="M815.931,129.985v-5.232h5.232v5.232H815.931z"/>
	<path d="M25.664,200.985v-33.001H13.336v-4.416h29.658v4.416H30.615v33.001H25.664z"/>
	<path d="M47.486,200.985v-37.417h4.594v13.426c2.144-2.484,4.85-3.727,8.117-3.727c2.007,0,3.751,0.396,5.232,1.187
		s2.54,1.885,3.178,3.28c0.638,1.395,0.957,3.42,0.957,6.074v17.177h-4.594v-17.177c0-2.297-0.498-3.969-1.493-5.016
		c-0.995-1.046-2.403-1.569-4.224-1.569c-1.362,0-2.642,0.354-3.841,1.059c-1.2,0.707-2.055,1.664-2.565,2.872
		c-0.511,1.208-0.766,2.875-0.766,5.002v14.829H47.486z"/>
	<path d="M95.112,192.257l4.747,0.587c-0.749,2.773-2.136,4.926-4.16,6.457c-2.025,1.531-4.611,2.297-7.759,2.297
		c-3.965,0-7.108-1.221-9.431-3.662c-2.322-2.441-3.484-5.866-3.484-10.273c0-4.56,1.174-8.099,3.522-10.617
		s5.394-3.777,9.137-3.777c3.624,0,6.585,1.233,8.882,3.7c2.297,2.468,3.446,5.938,3.446,10.414c0,0.272-0.009,0.681-0.026,1.225
		H79.772c0.17,2.979,1.012,5.258,2.527,6.841c1.514,1.582,3.403,2.373,5.666,2.373c1.685,0,3.122-0.442,4.313-1.327
		C93.469,195.608,94.414,194.196,95.112,192.257z M80.027,184.829h15.135c-0.204-2.279-0.783-3.989-1.735-5.13
		c-1.464-1.77-3.361-2.654-5.692-2.654c-2.11,0-3.884,0.706-5.321,2.118C80.976,180.576,80.181,182.465,80.027,184.829z"/>
	<path d="M130.18,196.876l0.664,4.059c-1.293,0.271-2.45,0.408-3.471,0.408c-1.667,0-2.96-0.264-3.879-0.791s-1.565-1.221-1.94-2.08
		c-0.374-0.859-0.561-2.668-0.561-5.424v-15.595h-3.369v-3.573h3.369v-6.713l4.568-2.756v9.469h4.62v3.573h-4.62v15.85
		c0,1.311,0.081,2.153,0.243,2.527c0.161,0.374,0.425,0.672,0.791,0.893c0.366,0.222,0.889,0.332,1.57,0.332
		C128.674,197.055,129.346,196.995,130.18,196.876z"/>
	<path d="M152.436,200.985v-3.981c-2.11,3.062-4.977,4.594-8.601,4.594c-1.6,0-3.093-0.306-4.479-0.919
		c-1.387-0.612-2.416-1.382-3.088-2.31c-0.672-0.927-1.145-2.062-1.417-3.407c-0.187-0.901-0.28-2.331-0.28-4.288V173.88h4.594
		v15.033c0,2.399,0.093,4.016,0.281,4.85c0.289,1.208,0.902,2.156,1.838,2.846c0.936,0.688,2.093,1.033,3.471,1.033
		c1.378,0,2.671-0.353,3.879-1.059c1.208-0.706,2.063-1.668,2.565-2.885c0.502-1.216,0.753-2.981,0.753-5.296V173.88h4.594v27.105
		H152.436z"/>
	<path d="M163.743,200.985V173.88h4.134v3.854c1.991-2.978,4.866-4.467,8.627-4.467c1.633,0,3.135,0.293,4.505,0.881
		c1.37,0.587,2.395,1.356,3.076,2.31c0.68,0.953,1.157,2.084,1.429,3.395c0.17,0.851,0.255,2.34,0.255,4.467v16.666h-4.594v-16.488
		c0-1.871-0.179-3.271-0.536-4.198c-0.357-0.927-0.991-1.667-1.901-2.221c-0.911-0.553-1.978-0.829-3.203-0.829
		c-1.957,0-3.646,0.621-5.066,1.863c-1.421,1.242-2.131,3.599-2.131,7.069v14.804H163.743z"/>
	<path d="M211.369,192.257l4.747,0.587c-0.749,2.773-2.136,4.926-4.16,6.457c-2.025,1.531-4.611,2.297-7.759,2.297
		c-3.965,0-7.108-1.221-9.431-3.662c-2.322-2.441-3.484-5.866-3.484-10.273c0-4.56,1.174-8.099,3.522-10.617
		s5.394-3.777,9.137-3.777c3.624,0,6.585,1.233,8.882,3.7c2.297,2.468,3.446,5.938,3.446,10.414c0,0.272-0.009,0.681-0.026,1.225
		h-20.214c0.17,2.979,1.012,5.258,2.527,6.841c1.514,1.582,3.403,2.373,5.666,2.373c1.685,0,3.122-0.442,4.313-1.327
		C209.726,195.608,210.67,194.196,211.369,192.257z M196.284,184.829h15.135c-0.204-2.279-0.783-3.989-1.735-5.13
		c-1.464-1.77-3.361-2.654-5.692-2.654c-2.11,0-3.884,0.706-5.321,2.118C197.233,180.576,196.438,182.465,196.284,184.829z"/>
	<path d="M236.355,200.985V173.88h4.135v4.109c1.055-1.923,2.029-3.19,2.922-3.803c0.893-0.613,1.876-0.919,2.948-0.919
		c1.548,0,3.122,0.493,4.722,1.48l-1.582,4.262c-1.123-0.663-2.246-0.995-3.369-0.995c-1.004,0-1.906,0.303-2.706,0.906
		c-0.8,0.604-1.37,1.442-1.71,2.514c-0.51,1.634-0.766,3.42-0.766,5.36v14.19H236.355z"/>
	<path d="M272.369,192.257l4.747,0.587c-0.749,2.773-2.136,4.926-4.16,6.457c-2.025,1.531-4.611,2.297-7.759,2.297
		c-3.965,0-7.108-1.221-9.431-3.662c-2.322-2.441-3.484-5.866-3.484-10.273c0-4.56,1.174-8.099,3.522-10.617
		s5.394-3.777,9.137-3.777c3.624,0,6.585,1.233,8.882,3.7c2.297,2.468,3.446,5.938,3.446,10.414c0,0.272-0.009,0.681-0.026,1.225
		h-20.214c0.17,2.979,1.012,5.258,2.527,6.841c1.514,1.582,3.403,2.373,5.666,2.373c1.685,0,3.122-0.442,4.313-1.327
		C270.726,195.608,271.67,194.196,272.369,192.257z M257.284,184.829h15.135c-0.204-2.279-0.783-3.989-1.735-5.13
		c-1.464-1.77-3.361-2.654-5.692-2.654c-2.11,0-3.884,0.706-5.321,2.118C258.233,180.576,257.438,182.465,257.284,184.829z"/>
	<path d="M282.884,211.373V173.88h4.186v3.522c0.987-1.379,2.101-2.412,3.344-3.102c1.242-0.688,2.748-1.033,4.518-1.033
		c2.313,0,4.355,0.596,6.125,1.786c1.769,1.191,3.105,2.872,4.007,5.041c0.902,2.17,1.353,4.548,1.353,7.134
		c0,2.773-0.498,5.271-1.493,7.491c-0.996,2.221-2.442,3.922-4.339,5.104c-1.897,1.183-3.893,1.773-5.985,1.773
		c-1.531,0-2.906-0.323-4.122-0.97c-1.217-0.646-2.216-1.463-2.999-2.45v13.195H282.884z M287.044,187.586
		c0,3.488,0.706,6.066,2.118,7.733c1.412,1.668,3.122,2.501,5.13,2.501c2.042,0,3.79-0.863,5.245-2.591
		c1.455-1.727,2.183-4.402,2.183-8.026c0-3.454-0.711-6.04-2.131-7.759c-1.421-1.719-3.118-2.578-5.092-2.578
		c-1.957,0-3.688,0.915-5.194,2.744S287.044,184.098,287.044,187.586z"/>
	<path d="M330.51,192.257l4.747,0.587c-0.749,2.773-2.136,4.926-4.16,6.457c-2.025,1.531-4.611,2.297-7.759,2.297
		c-3.965,0-7.108-1.221-9.431-3.662c-2.322-2.441-3.484-5.866-3.484-10.273c0-4.56,1.174-8.099,3.522-10.617
		s5.394-3.777,9.137-3.777c3.624,0,6.585,1.233,8.882,3.7c2.297,2.468,3.446,5.938,3.446,10.414c0,0.272-0.009,0.681-0.026,1.225
		H315.17c0.17,2.979,1.012,5.258,2.527,6.841c1.514,1.582,3.403,2.373,5.666,2.373c1.685,0,3.122-0.442,4.313-1.327
		C328.867,195.608,329.812,194.196,330.51,192.257z M315.425,184.829h15.135c-0.204-2.279-0.783-3.989-1.735-5.13
		c-1.464-1.77-3.361-2.654-5.692-2.654c-2.11,0-3.884,0.706-5.321,2.118C316.374,180.576,315.579,182.465,315.425,184.829z"/>
	<path d="M358.712,197.642c-1.702,1.446-3.339,2.468-4.913,3.063c-1.574,0.595-3.263,0.893-5.066,0.893
		c-2.978,0-5.266-0.728-6.865-2.182c-1.6-1.455-2.399-3.313-2.399-5.577c0-1.327,0.302-2.539,0.906-3.637
		c0.604-1.098,1.395-1.979,2.374-2.642c0.978-0.664,2.08-1.166,3.305-1.506c0.902-0.238,2.263-0.468,4.083-0.689
		c3.709-0.442,6.44-0.97,8.193-1.582c0.017-0.63,0.026-1.029,0.026-1.2c0-1.871-0.434-3.19-1.302-3.956
		c-1.174-1.037-2.918-1.557-5.232-1.557c-2.161,0-3.756,0.379-4.786,1.136c-1.029,0.758-1.791,2.098-2.284,4.02l-4.492-0.612
		c0.409-1.923,1.081-3.475,2.017-4.658c0.936-1.182,2.288-2.093,4.058-2.73c1.77-0.638,3.82-0.957,6.151-0.957
		c2.314,0,4.194,0.272,5.641,0.816c1.446,0.545,2.51,1.229,3.19,2.055c0.68,0.825,1.157,1.867,1.429,3.127
		c0.153,0.782,0.23,2.194,0.23,4.236v6.126c0,4.271,0.098,6.972,0.293,8.104c0.195,1.132,0.583,2.216,1.161,3.254h-4.798
		C359.155,200.032,358.849,198.918,358.712,197.642z M358.33,187.382c-1.667,0.681-4.169,1.259-7.503,1.735
		c-1.889,0.272-3.225,0.579-4.007,0.919c-0.783,0.341-1.387,0.838-1.812,1.493c-0.426,0.655-0.638,1.383-0.638,2.182
		c0,1.226,0.463,2.246,1.391,3.063c0.927,0.816,2.284,1.225,4.071,1.225c1.77,0,3.344-0.387,4.722-1.161
		c1.378-0.774,2.391-1.833,3.037-3.178c0.494-1.037,0.74-2.569,0.74-4.594V187.382z"/>
	<path d="M380.126,196.876l0.664,4.059c-1.293,0.271-2.45,0.408-3.471,0.408c-1.667,0-2.96-0.264-3.879-0.791
		s-1.565-1.221-1.94-2.08c-0.374-0.859-0.561-2.668-0.561-5.424v-15.595h-3.369v-3.573h3.369v-6.713l4.568-2.756v9.469h4.62v3.573
		h-4.62v15.85c0,1.311,0.081,2.153,0.243,2.527c0.161,0.374,0.425,0.672,0.791,0.893c0.366,0.222,0.889,0.332,1.57,0.332
		C378.621,197.055,379.292,196.995,380.126,196.876z"/>
	<path d="M382.781,192.895l4.543-0.715c0.255,1.821,0.966,3.216,2.131,4.186c1.165,0.971,2.795,1.455,4.888,1.455
		c2.109,0,3.675-0.43,4.696-1.289c1.021-0.858,1.531-1.867,1.531-3.024c0-1.037-0.451-1.854-1.353-2.45
		c-0.63-0.408-2.195-0.927-4.696-1.557c-3.369-0.851-5.705-1.586-7.006-2.208c-1.301-0.621-2.289-1.48-2.96-2.577
		c-0.672-1.098-1.008-2.311-1.008-3.638c0-1.208,0.276-2.326,0.83-3.356c0.553-1.029,1.306-1.884,2.259-2.564
		c0.715-0.527,1.688-0.974,2.922-1.34c1.233-0.366,2.556-0.549,3.969-0.549c2.127,0,3.995,0.306,5.603,0.919
		c1.608,0.612,2.794,1.441,3.56,2.488c0.766,1.046,1.293,2.446,1.583,4.198l-4.492,0.612c-0.205-1.395-0.796-2.483-1.774-3.267
		c-0.979-0.782-2.361-1.174-4.147-1.174c-2.11,0-3.616,0.349-4.518,1.046c-0.902,0.698-1.353,1.515-1.353,2.45
		c0,0.597,0.187,1.132,0.562,1.608c0.374,0.494,0.961,0.902,1.761,1.225c0.459,0.171,1.812,0.562,4.058,1.175
		c3.25,0.867,5.517,1.578,6.802,2.131s2.293,1.357,3.024,2.412s1.098,2.365,1.098,3.931c0,1.531-0.447,2.974-1.34,4.326
		c-0.894,1.353-2.182,2.398-3.867,3.139s-3.59,1.11-5.717,1.11c-3.522,0-6.207-0.731-8.052-2.194
		C384.469,197.939,383.291,195.771,382.781,192.895z"/>
	<path d="M425.302,168.852v-5.283h4.594v5.283H425.302z M425.302,200.985V173.88h4.594v27.105H425.302z"/>
	<path d="M446.919,196.876l0.664,4.059c-1.293,0.271-2.45,0.408-3.471,0.408c-1.668,0-2.961-0.264-3.88-0.791
		s-1.565-1.221-1.94-2.08c-0.373-0.859-0.561-2.668-0.561-5.424v-15.595h-3.369v-3.573h3.369v-6.713l4.568-2.756v9.469h4.619v3.573
		H442.3v15.85c0,1.311,0.08,2.153,0.242,2.527s0.426,0.672,0.791,0.893c0.366,0.222,0.89,0.332,1.57,0.332
		C445.414,197.055,446.085,196.995,446.919,196.876z"/>
	<path d="M449.574,192.895l4.543-0.715c0.256,1.821,0.967,3.216,2.132,4.186c1.165,0.971,2.795,1.455,4.888,1.455
		c2.109,0,3.676-0.43,4.696-1.289c1.021-0.858,1.531-1.867,1.531-3.024c0-1.037-0.451-1.854-1.353-2.45
		c-0.63-0.408-2.195-0.927-4.696-1.557c-3.369-0.851-5.704-1.586-7.007-2.208c-1.301-0.621-2.288-1.48-2.96-2.577
		c-0.673-1.098-1.009-2.311-1.009-3.638c0-1.208,0.277-2.326,0.83-3.356c0.553-1.029,1.306-1.884,2.259-2.564
		c0.715-0.527,1.688-0.974,2.923-1.34c1.232-0.366,2.556-0.549,3.969-0.549c2.127,0,3.994,0.306,5.602,0.919
		c1.608,0.612,2.795,1.441,3.561,2.488c0.766,1.046,1.293,2.446,1.582,4.198l-4.491,0.612c-0.204-1.395-0.796-2.483-1.774-3.267
		c-0.979-0.782-2.36-1.174-4.146-1.174c-2.111,0-3.617,0.349-4.518,1.046c-0.902,0.698-1.354,1.515-1.354,2.45
		c0,0.597,0.188,1.132,0.562,1.608c0.374,0.494,0.962,0.902,1.761,1.225c0.46,0.171,1.812,0.562,4.059,1.175
		c3.25,0.867,5.518,1.578,6.802,2.131s2.293,1.357,3.024,2.412s1.098,2.365,1.098,3.931c0,1.531-0.447,2.974-1.34,4.326
		c-0.894,1.353-2.182,2.398-3.867,3.139c-1.684,0.74-3.59,1.11-5.717,1.11c-3.521,0-6.207-0.731-8.053-2.194
		C451.263,197.939,450.084,195.771,449.574,192.895z"/>
	<path d="M496.103,192.257l4.747,0.587c-0.749,2.773-2.136,4.926-4.16,6.457c-2.025,1.531-4.611,2.297-7.759,2.297
		c-3.965,0-7.108-1.221-9.432-3.662c-2.322-2.441-3.483-5.866-3.483-10.273c0-4.56,1.175-8.099,3.522-10.617
		s5.394-3.777,9.137-3.777c3.625,0,6.586,1.233,8.883,3.7c2.297,2.468,3.445,5.938,3.445,10.414c0,0.272-0.009,0.681-0.025,1.225
		h-20.215c0.17,2.979,1.013,5.258,2.527,6.841c1.514,1.582,3.402,2.373,5.666,2.373c1.685,0,3.122-0.442,4.313-1.327
		C494.46,195.608,495.405,194.196,496.103,192.257z M481.019,184.829h15.135c-0.204-2.279-0.783-3.989-1.735-5.13
		c-1.464-1.77-3.36-2.654-5.692-2.654c-2.109,0-3.883,0.706-5.32,2.118C481.967,180.576,481.171,182.465,481.019,184.829z"/>
	<path d="M506.516,200.985v-37.417h4.594v37.417H506.516z"/>
	<path d="M519.329,200.985v-23.532h-4.058v-3.573h4.058v-2.884c0-1.82,0.161-3.174,0.485-4.059c0.441-1.19,1.221-2.156,2.335-2.896
		s2.676-1.11,4.684-1.11c1.293,0,2.722,0.153,4.288,0.459l-0.689,4.008c-0.953-0.17-1.854-0.256-2.705-0.256
		c-1.396,0-2.383,0.298-2.961,0.894s-0.867,1.71-0.867,3.344v2.501h5.283v3.573h-5.283v23.532H519.329z"/>
	<path d="M534.055,200.985v-5.232h5.232v5.232H534.055z"/>
	<path d="M25.664,271.985v-33.001H13.336v-4.416h29.658v4.416H30.615v33.001H25.664z"/>
	<path d="M47.486,271.985v-37.417h4.594v13.426c2.144-2.484,4.85-3.727,8.117-3.727c2.007,0,3.751,0.396,5.232,1.187
		s2.54,1.885,3.178,3.28c0.638,1.395,0.957,3.42,0.957,6.074v17.177h-4.594v-17.177c0-2.297-0.498-3.969-1.493-5.016
		c-0.995-1.046-2.403-1.569-4.224-1.569c-1.362,0-2.642,0.354-3.841,1.059c-1.2,0.707-2.055,1.664-2.565,2.872
		c-0.511,1.208-0.766,2.875-0.766,5.002v14.829H47.486z"/>
	<path d="M95.112,263.257l4.747,0.587c-0.749,2.773-2.136,4.926-4.16,6.457c-2.025,1.531-4.611,2.297-7.759,2.297
		c-3.965,0-7.108-1.221-9.431-3.662c-2.322-2.441-3.484-5.866-3.484-10.273c0-4.56,1.174-8.099,3.522-10.617
		s5.394-3.777,9.137-3.777c3.624,0,6.585,1.233,8.882,3.7c2.297,2.468,3.446,5.938,3.446,10.414c0,0.272-0.009,0.681-0.026,1.225
		H79.772c0.17,2.979,1.012,5.258,2.527,6.841c1.514,1.582,3.403,2.373,5.666,2.373c1.685,0,3.122-0.442,4.313-1.327
		C93.469,266.608,94.414,265.196,95.112,263.257z M80.027,255.829h15.135c-0.204-2.279-0.783-3.989-1.735-5.13
		c-1.464-1.77-3.361-2.654-5.692-2.654c-2.11,0-3.884,0.706-5.321,2.118C80.976,251.576,80.181,253.465,80.027,255.829z"/>
	<path d="M118.439,258.433c0-5.02,1.395-8.737,4.186-11.153c2.331-2.008,5.172-3.012,8.524-3.012c3.727,0,6.772,1.221,9.137,3.662
		c2.365,2.442,3.548,5.815,3.548,10.12c0,3.488-0.523,6.232-1.57,8.231c-1.046,1.999-2.569,3.552-4.568,4.657
		c-2,1.106-4.182,1.659-6.547,1.659c-3.794,0-6.861-1.216-9.201-3.649C119.609,266.515,118.439,263.01,118.439,258.433z
		 M123.162,258.433c0,3.471,0.757,6.07,2.271,7.797c1.514,1.728,3.42,2.591,5.717,2.591c2.28,0,4.177-0.867,5.692-2.604
		c1.514-1.735,2.271-4.381,2.271-7.938c0-3.352-0.762-5.892-2.284-7.618c-1.523-1.727-3.416-2.591-5.679-2.591
		c-2.297,0-4.203,0.859-5.717,2.578C123.918,252.367,123.162,254.962,123.162,258.433z"/>
	<path d="M149.22,271.985V244.88h4.134v3.854c1.991-2.978,4.866-4.467,8.627-4.467c1.633,0,3.135,0.293,4.505,0.881
		c1.37,0.587,2.395,1.356,3.076,2.31c0.68,0.953,1.157,2.084,1.429,3.395c0.17,0.851,0.255,2.34,0.255,4.467v16.666h-4.594v-16.488
		c0-1.871-0.179-3.271-0.536-4.198c-0.357-0.927-0.991-1.667-1.901-2.221c-0.911-0.553-1.978-0.829-3.203-0.829
		c-1.957,0-3.646,0.621-5.066,1.863c-1.421,1.242-2.131,3.599-2.131,7.069v14.804H149.22z"/>
	<path d="M178.189,271.985v-37.417h4.594v37.417H178.189z"/>
	<path d="M189.699,282.424l-0.51-4.312c1.004,0.271,1.88,0.408,2.629,0.408c1.021,0,1.837-0.171,2.45-0.511
		c0.612-0.341,1.114-0.816,1.506-1.43c0.289-0.459,0.757-1.6,1.404-3.42c0.085-0.255,0.221-0.63,0.408-1.123L187.3,244.88h4.952
		l5.64,15.696c0.731,1.991,1.387,4.084,1.965,6.279c0.527-2.11,1.157-4.169,1.889-6.177l5.794-15.799h4.594l-10.312,27.564
		c-1.106,2.978-1.965,5.028-2.578,6.151c-0.817,1.515-1.753,2.625-2.808,3.331c-1.055,0.706-2.314,1.059-3.777,1.059
		C191.775,282.985,190.788,282.798,189.699,282.424z"/>
	<path d="M230.562,282.373V244.88h4.186v3.522c0.987-1.379,2.101-2.412,3.344-3.102c1.242-0.688,2.748-1.033,4.518-1.033
		c2.313,0,4.355,0.596,6.125,1.786c1.769,1.191,3.105,2.872,4.007,5.041c0.902,2.17,1.353,4.548,1.353,7.134
		c0,2.773-0.498,5.271-1.493,7.491c-0.996,2.221-2.442,3.922-4.339,5.104c-1.897,1.183-3.893,1.773-5.985,1.773
		c-1.531,0-2.906-0.323-4.122-0.97c-1.217-0.646-2.216-1.463-2.999-2.45v13.195H230.562z M234.722,258.586
		c0,3.488,0.706,6.066,2.118,7.733c1.412,1.668,3.122,2.501,5.13,2.501c2.042,0,3.79-0.863,5.245-2.591
		c1.455-1.727,2.183-4.402,2.183-8.026c0-3.454-0.711-6.04-2.131-7.759c-1.421-1.719-3.118-2.578-5.092-2.578
		c-1.957,0-3.688,0.915-5.194,2.744S234.722,255.098,234.722,258.586z"/>
	<path d="M259.582,271.985V244.88h4.135v4.109c1.055-1.923,2.029-3.19,2.922-3.803c0.893-0.613,1.876-0.919,2.948-0.919
		c1.548,0,3.122,0.493,4.722,1.48l-1.582,4.262c-1.123-0.663-2.246-0.995-3.369-0.995c-1.004,0-1.906,0.303-2.706,0.906
		c-0.8,0.604-1.37,1.442-1.71,2.514c-0.51,1.634-0.766,3.42-0.766,5.36v14.19H259.582z"/>
	<path d="M295.594,263.257l4.747,0.587c-0.749,2.773-2.136,4.926-4.16,6.457c-2.025,1.531-4.611,2.297-7.759,2.297
		c-3.965,0-7.108-1.221-9.431-3.662c-2.322-2.441-3.484-5.866-3.484-10.273c0-4.56,1.174-8.099,3.522-10.617
		s5.394-3.777,9.137-3.777c3.624,0,6.585,1.233,8.882,3.7c2.297,2.468,3.446,5.938,3.446,10.414c0,0.272-0.009,0.681-0.026,1.225
		h-20.214c0.17,2.979,1.012,5.258,2.527,6.841c1.514,1.582,3.403,2.373,5.666,2.373c1.685,0,3.122-0.442,4.313-1.327
		C293.952,266.608,294.896,265.196,295.594,263.257z M280.51,255.829h15.135c-0.204-2.279-0.783-3.989-1.735-5.13
		c-1.464-1.77-3.361-2.654-5.692-2.654c-2.11,0-3.884,0.706-5.321,2.118C281.458,251.576,280.663,253.465,280.51,255.829z"/>
	<path d="M306.059,271.985V244.88h4.135v4.109c1.055-1.923,2.029-3.19,2.922-3.803c0.893-0.613,1.876-0.919,2.948-0.919
		c1.548,0,3.122,0.493,4.722,1.48l-1.582,4.262c-1.123-0.663-2.246-0.995-3.369-0.995c-1.004,0-1.906,0.303-2.706,0.906
		c-0.8,0.604-1.37,1.442-1.71,2.514c-0.51,1.634-0.766,3.42-0.766,5.36v14.19H306.059z"/>
	<path d="M342.072,263.257l4.747,0.587c-0.749,2.773-2.136,4.926-4.16,6.457c-2.025,1.531-4.611,2.297-7.759,2.297
		c-3.965,0-7.108-1.221-9.431-3.662c-2.322-2.441-3.484-5.866-3.484-10.273c0-4.56,1.174-8.099,3.522-10.617
		s5.394-3.777,9.137-3.777c3.624,0,6.585,1.233,8.882,3.7c2.297,2.468,3.446,5.938,3.446,10.414c0,0.272-0.009,0.681-0.026,1.225
		h-20.214c0.17,2.979,1.012,5.258,2.527,6.841c1.514,1.582,3.403,2.373,5.666,2.373c1.685,0,3.122-0.442,4.313-1.327
		C340.429,266.608,341.374,265.196,342.072,263.257z M326.987,255.829h15.135c-0.204-2.279-0.783-3.989-1.735-5.13
		c-1.464-1.77-3.361-2.654-5.692-2.654c-2.11,0-3.884,0.706-5.321,2.118C327.936,251.576,327.141,253.465,326.987,255.829z"/>
	<path d="M369.866,282.373v-13.271c-0.715,1.004-1.714,1.837-2.999,2.501c-1.285,0.663-2.65,0.995-4.096,0.995
		c-3.216,0-5.985-1.284-8.308-3.854c-2.323-2.569-3.484-6.092-3.484-10.566c0-2.723,0.472-5.164,1.417-7.325
		s2.313-3.799,4.109-4.913c1.795-1.114,3.765-1.672,5.909-1.672c3.352,0,5.989,1.412,7.912,4.236v-3.624h4.135v37.493H369.866z
		 M355.701,258.356c0,3.488,0.731,6.104,2.195,7.848c1.463,1.745,3.216,2.616,5.258,2.616c1.957,0,3.641-0.829,5.053-2.488
		c1.413-1.659,2.119-4.182,2.119-7.567c0-3.607-0.745-6.321-2.233-8.142c-1.489-1.821-3.237-2.731-5.245-2.731
		c-1.991,0-3.68,0.847-5.066,2.54C356.394,252.124,355.701,254.767,355.701,258.356z"/>
	<path d="M399.421,271.985v-3.981c-2.11,3.062-4.977,4.594-8.601,4.594c-1.6,0-3.093-0.306-4.479-0.919
		c-1.387-0.612-2.416-1.382-3.088-2.31c-0.672-0.927-1.145-2.062-1.417-3.407c-0.187-0.901-0.28-2.331-0.28-4.288V244.88h4.594
		v15.033c0,2.399,0.093,4.016,0.281,4.85c0.289,1.208,0.902,2.156,1.838,2.846c0.936,0.688,2.093,1.033,3.471,1.033
		c1.378,0,2.671-0.353,3.879-1.059c1.208-0.706,2.063-1.668,2.565-2.885c0.502-1.216,0.753-2.981,0.753-5.296V244.88h4.594v27.105
		H399.421z"/>
	<path d="M410.754,239.852v-5.283h4.594v5.283H410.754z M410.754,271.985V244.88h4.594v27.105H410.754z"/>
	<path d="M420.503,263.895l4.543-0.715c0.255,1.821,0.966,3.216,2.131,4.186c1.165,0.971,2.795,1.455,4.888,1.455
		c2.109,0,3.675-0.43,4.696-1.289c1.021-0.858,1.531-1.867,1.531-3.024c0-1.037-0.451-1.854-1.352-2.45
		c-0.63-0.408-2.195-0.927-4.696-1.557c-3.369-0.851-5.705-1.586-7.006-2.208c-1.301-0.621-2.289-1.48-2.96-2.577
		c-0.672-1.098-1.008-2.311-1.008-3.638c0-1.208,0.276-2.326,0.83-3.356c0.553-1.029,1.306-1.884,2.259-2.564
		c0.715-0.527,1.688-0.974,2.922-1.34c1.233-0.366,2.556-0.549,3.969-0.549c2.127,0,3.995,0.306,5.603,0.919
		c1.607,0.612,2.795,1.441,3.561,2.488c0.766,1.046,1.293,2.446,1.582,4.198l-4.492,0.612c-0.204-1.395-0.795-2.483-1.773-3.267
		c-0.979-0.782-2.361-1.174-4.147-1.174c-2.11,0-3.616,0.349-4.518,1.046c-0.902,0.698-1.353,1.515-1.353,2.45
		c0,0.597,0.187,1.132,0.562,1.608c0.374,0.494,0.961,0.902,1.761,1.225c0.459,0.171,1.812,0.562,4.058,1.175
		c3.25,0.867,5.517,1.578,6.801,2.131c1.285,0.553,2.293,1.357,3.025,2.412c0.73,1.055,1.098,2.365,1.098,3.931
		c0,1.531-0.447,2.974-1.34,4.326c-0.895,1.353-2.183,2.398-3.867,3.139s-3.59,1.11-5.717,1.11c-3.522,0-6.207-0.731-8.052-2.194
		C422.192,268.939,421.014,266.771,420.503,263.895z"/>
	<path d="M448.502,239.852v-5.283h4.595v5.283H448.502z M448.502,271.985V244.88h4.595v27.105H448.502z"/>
	<path d="M470.121,267.876l0.663,4.059c-1.294,0.271-2.45,0.408-3.472,0.408c-1.667,0-2.96-0.264-3.879-0.791
		s-1.565-1.221-1.939-2.08c-0.375-0.859-0.562-2.668-0.562-5.424v-15.595h-3.369v-3.573h3.369v-6.713l4.568-2.756v9.469h4.62v3.573
		h-4.62v15.85c0,1.311,0.081,2.153,0.243,2.527c0.16,0.374,0.424,0.672,0.791,0.893c0.365,0.222,0.889,0.332,1.569,0.332
		C468.615,268.055,469.287,267.995,470.121,267.876z"/>
	<path d="M493.167,263.257l4.747,0.587c-0.749,2.773-2.136,4.926-4.16,6.457c-2.025,1.531-4.611,2.297-7.759,2.297
		c-3.965,0-7.108-1.221-9.432-3.662c-2.322-2.441-3.483-5.866-3.483-10.273c0-4.56,1.175-8.099,3.522-10.617
		s5.394-3.777,9.137-3.777c3.625,0,6.586,1.233,8.883,3.7c2.297,2.468,3.445,5.938,3.445,10.414c0,0.272-0.009,0.681-0.025,1.225
		h-20.215c0.17,2.979,1.013,5.258,2.527,6.841c1.514,1.582,3.402,2.373,5.666,2.373c1.685,0,3.122-0.442,4.313-1.327
		C491.525,266.608,492.469,265.196,493.167,263.257z M478.083,255.829h15.135c-0.204-2.279-0.783-3.989-1.735-5.13
		c-1.464-1.77-3.36-2.654-5.692-2.654c-2.109,0-3.883,0.706-5.32,2.118C479.032,251.576,478.236,253.465,478.083,255.829z"/>
	<path d="M518.231,239.852v-5.283h4.595v5.283H518.231z M518.231,271.985V244.88h4.595v27.105H518.231z"/>
	<path d="M527.98,263.895l4.543-0.715c0.256,1.821,0.967,3.216,2.132,4.186c1.165,0.971,2.795,1.455,4.888,1.455
		c2.109,0,3.676-0.43,4.696-1.289c1.021-0.858,1.531-1.867,1.531-3.024c0-1.037-0.451-1.854-1.353-2.45
		c-0.63-0.408-2.195-0.927-4.696-1.557c-3.369-0.851-5.704-1.586-7.007-2.208c-1.301-0.621-2.288-1.48-2.96-2.577
		c-0.673-1.098-1.009-2.311-1.009-3.638c0-1.208,0.277-2.326,0.83-3.356c0.553-1.029,1.306-1.884,2.259-2.564
		c0.715-0.527,1.688-0.974,2.923-1.34c1.232-0.366,2.556-0.549,3.969-0.549c2.127,0,3.994,0.306,5.602,0.919
		c1.608,0.612,2.795,1.441,3.561,2.488c0.766,1.046,1.293,2.446,1.582,4.198l-4.491,0.612c-0.204-1.395-0.796-2.483-1.774-3.267
		c-0.979-0.782-2.36-1.174-4.146-1.174c-2.111,0-3.617,0.349-4.518,1.046c-0.902,0.698-1.354,1.515-1.354,2.45
		c0,0.597,0.188,1.132,0.562,1.608c0.374,0.494,0.962,0.902,1.761,1.225c0.46,0.171,1.812,0.562,4.059,1.175
		c3.25,0.867,5.518,1.578,6.802,2.131s2.293,1.357,3.024,2.412s1.098,2.365,1.098,3.931c0,1.531-0.447,2.974-1.34,4.326
		c-0.894,1.353-2.182,2.398-3.867,3.139c-1.684,0.74-3.59,1.11-5.717,1.11c-3.521,0-6.207-0.731-8.053-2.194
		C529.669,268.939,528.491,266.771,527.98,263.895z"/>
	<path d="M588.164,268.642c-1.701,1.446-3.34,2.468-4.913,3.063c-1.573,0.595-3.263,0.893-5.066,0.893
		c-2.978,0-5.267-0.728-6.865-2.182c-1.6-1.455-2.399-3.313-2.399-5.577c0-1.327,0.302-2.539,0.906-3.637
		c0.604-1.098,1.395-1.979,2.373-2.642c0.979-0.664,2.08-1.166,3.306-1.506c0.901-0.238,2.263-0.468,4.083-0.689
		c3.71-0.442,6.441-0.97,8.193-1.582c0.018-0.63,0.025-1.029,0.025-1.2c0-1.871-0.434-3.19-1.301-3.956
		c-1.175-1.037-2.919-1.557-5.232-1.557c-2.162,0-3.757,0.379-4.786,1.136c-1.029,0.758-1.791,2.098-2.284,4.02l-4.492-0.612
		c0.408-1.923,1.08-3.475,2.017-4.658c0.936-1.182,2.288-2.093,4.058-2.73s3.82-0.957,6.151-0.957c2.313,0,4.194,0.272,5.641,0.816
		c1.446,0.545,2.51,1.229,3.19,2.055c0.68,0.825,1.156,1.867,1.43,3.127c0.152,0.782,0.229,2.194,0.229,4.236v6.126
		c0,4.271,0.098,6.972,0.294,8.104c0.195,1.132,0.582,2.216,1.16,3.254h-4.798C588.606,271.032,588.3,269.918,588.164,268.642z
		 M587.781,258.382c-1.668,0.681-4.169,1.259-7.504,1.735c-1.889,0.272-3.225,0.579-4.007,0.919
		c-0.782,0.341-1.387,0.838-1.812,1.493c-0.426,0.655-0.639,1.383-0.639,2.182c0,1.226,0.463,2.246,1.391,3.063
		c0.928,0.816,2.285,1.225,4.071,1.225c1.77,0,3.344-0.387,4.722-1.161c1.379-0.774,2.391-1.833,3.037-3.178
		c0.494-1.037,0.74-2.569,0.74-4.594V258.382z"/>
	<path d="M599.547,271.985V244.88h4.134v3.854c1.992-2.978,4.867-4.467,8.627-4.467c1.634,0,3.135,0.293,4.506,0.881
		c1.369,0.587,2.395,1.356,3.075,2.31s1.157,2.084,1.429,3.395c0.17,0.851,0.256,2.34,0.256,4.467v16.666h-4.594v-16.488
		c0-1.871-0.18-3.271-0.537-4.198c-0.357-0.927-0.99-1.667-1.9-2.221c-0.911-0.553-1.979-0.829-3.203-0.829
		c-1.957,0-3.646,0.621-5.066,1.863c-1.422,1.242-2.132,3.599-2.132,7.069v14.804H599.547z"/>
	<path d="M33.244,339.642c-1.702,1.446-3.339,2.468-4.913,3.063c-1.574,0.595-3.263,0.893-5.066,0.893
		c-2.978,0-5.266-0.728-6.865-2.182c-1.6-1.455-2.399-3.313-2.399-5.577c0-1.327,0.302-2.539,0.906-3.637
		c0.604-1.098,1.395-1.979,2.374-2.642c0.978-0.664,2.08-1.166,3.305-1.506c0.902-0.238,2.263-0.468,4.083-0.689
		c3.709-0.442,6.44-0.97,8.193-1.582c0.017-0.63,0.026-1.029,0.026-1.2c0-1.871-0.434-3.19-1.302-3.956
		c-1.174-1.037-2.918-1.557-5.232-1.557c-2.161,0-3.756,0.379-4.786,1.136c-1.029,0.758-1.791,2.098-2.284,4.02l-4.492-0.612
		c0.409-1.923,1.081-3.475,2.017-4.658c0.936-1.182,2.288-2.093,4.058-2.73c1.77-0.638,3.82-0.957,6.151-0.957
		c2.314,0,4.194,0.272,5.641,0.816c1.446,0.545,2.51,1.229,3.19,2.055c0.68,0.825,1.157,1.867,1.429,3.127
		c0.153,0.782,0.23,2.194,0.23,4.236v6.126c0,4.271,0.098,6.972,0.293,8.104c0.195,1.132,0.583,2.216,1.161,3.254h-4.798
		C33.686,342.032,33.38,340.918,33.244,339.642z M32.861,329.382c-1.667,0.681-4.169,1.259-7.503,1.735
		c-1.889,0.272-3.225,0.579-4.007,0.919c-0.783,0.341-1.387,0.838-1.812,1.493c-0.426,0.655-0.638,1.383-0.638,2.182
		c0,1.226,0.463,2.246,1.391,3.063c0.927,0.816,2.284,1.225,4.071,1.225c1.77,0,3.344-0.387,4.722-1.161
		c1.378-0.774,2.391-1.833,3.037-3.178c0.494-1.037,0.74-2.569,0.74-4.594V329.382z"/>
	<path d="M44.627,353.373V315.88h4.186v3.522c0.987-1.379,2.101-2.412,3.344-3.102c1.242-0.688,2.748-1.033,4.518-1.033
		c2.313,0,4.355,0.596,6.125,1.786c1.769,1.191,3.105,2.872,4.007,5.041c0.902,2.17,1.353,4.548,1.353,7.134
		c0,2.773-0.498,5.271-1.493,7.491c-0.996,2.221-2.442,3.922-4.339,5.104c-1.897,1.183-3.893,1.773-5.985,1.773
		c-1.531,0-2.906-0.323-4.122-0.97c-1.217-0.646-2.216-1.463-2.999-2.45v13.195H44.627z M48.788,329.586
		c0,3.488,0.706,6.066,2.118,7.733c1.412,1.668,3.122,2.501,5.13,2.501c2.042,0,3.79-0.863,5.245-2.591
		c1.455-1.727,2.183-4.402,2.183-8.026c0-3.454-0.711-6.04-2.131-7.759c-1.421-1.719-3.118-2.578-5.092-2.578
		c-1.957,0-3.688,0.915-5.194,2.744S48.788,326.098,48.788,329.586z"/>
	<path d="M73.698,353.373V315.88h4.186v3.522c0.987-1.379,2.101-2.412,3.344-3.102c1.242-0.688,2.748-1.033,4.518-1.033
		c2.313,0,4.355,0.596,6.125,1.786c1.769,1.191,3.105,2.872,4.007,5.041c0.902,2.17,1.353,4.548,1.353,7.134
		c0,2.773-0.498,5.271-1.493,7.491c-0.996,2.221-2.442,3.922-4.339,5.104c-1.897,1.183-3.893,1.773-5.985,1.773
		c-1.531,0-2.906-0.323-4.122-0.97c-1.217-0.646-2.216-1.463-2.999-2.45v13.195H73.698z M77.858,329.586
		c0,3.488,0.706,6.066,2.118,7.733c1.412,1.668,3.122,2.501,5.13,2.501c2.042,0,3.79-0.863,5.245-2.591
		c1.455-1.727,2.183-4.402,2.183-8.026c0-3.454-0.711-6.04-2.131-7.759c-1.421-1.719-3.118-2.578-5.092-2.578
		c-1.957,0-3.688,0.915-5.194,2.744S77.858,326.098,77.858,329.586z"/>
	<path d="M102.717,342.985V315.88h4.135v4.109c1.055-1.923,2.029-3.19,2.922-3.803c0.893-0.613,1.876-0.919,2.948-0.919
		c1.548,0,3.122,0.493,4.722,1.48l-1.582,4.262c-1.123-0.663-2.246-0.995-3.369-0.995c-1.004,0-1.906,0.303-2.706,0.906
		c-0.8,0.604-1.37,1.442-1.71,2.514c-0.51,1.634-0.766,3.42-0.766,5.36v14.19H102.717z"/>
	<path d="M118.465,329.433c0-5.02,1.395-8.737,4.186-11.153c2.331-2.008,5.172-3.012,8.524-3.012c3.727,0,6.772,1.221,9.137,3.662
		c2.365,2.442,3.548,5.815,3.548,10.12c0,3.488-0.523,6.232-1.57,8.231c-1.046,1.999-2.569,3.552-4.568,4.657
		c-2,1.106-4.182,1.659-6.547,1.659c-3.794,0-6.861-1.216-9.201-3.649C119.635,337.515,118.465,334.01,118.465,329.433z
		 M123.187,329.433c0,3.471,0.757,6.07,2.271,7.797c1.514,1.728,3.42,2.591,5.717,2.591c2.28,0,4.177-0.867,5.692-2.604
		c1.514-1.735,2.271-4.381,2.271-7.938c0-3.352-0.762-5.892-2.284-7.618c-1.523-1.727-3.416-2.591-5.679-2.591
		c-2.297,0-4.203,0.859-5.717,2.578C123.944,323.367,123.187,325.962,123.187,329.433z"/>
	<path d="M146.183,342.985l9.903-14.089l-9.163-13.017h5.743l4.16,6.355c0.783,1.208,1.412,2.221,1.889,3.037
		c0.749-1.123,1.438-2.118,2.067-2.986l4.569-6.406h5.487l-9.367,12.762l10.082,14.344h-5.64l-5.564-8.423l-1.48-2.271
		l-7.121,10.694H146.183z"/>
	<path d="M175.407,310.852v-5.283h4.594v5.283H175.407z M175.407,342.985V315.88h4.594v27.105H175.407z"/>
	<path d="M186.994,342.985V315.88h4.109v3.803c0.851-1.327,1.982-2.395,3.395-3.203c1.412-0.808,3.02-1.212,4.824-1.212
		c2.008,0,3.654,0.417,4.939,1.25c1.285,0.834,2.19,2,2.718,3.497c2.144-3.165,4.934-4.747,8.372-4.747
		c2.688,0,4.755,0.744,6.202,2.233c1.446,1.489,2.169,3.781,2.169,6.878v18.606h-4.569V325.91c0-1.837-0.149-3.16-0.447-3.969
		c-0.298-0.808-0.838-1.459-1.621-1.952s-1.702-0.74-2.756-0.74c-1.906,0-3.488,0.634-4.748,1.901s-1.889,3.297-1.889,6.087v15.748
		h-4.594v-17.611c0-2.041-0.375-3.572-1.123-4.594c-0.749-1.021-1.974-1.531-3.675-1.531c-1.293,0-2.489,0.341-3.586,1.021
		c-1.098,0.681-1.893,1.677-2.387,2.986c-0.494,1.311-0.74,3.199-0.74,5.666v14.063H186.994z"/>
	<path d="M248.224,339.642c-1.702,1.446-3.339,2.468-4.913,3.063c-1.574,0.595-3.263,0.893-5.066,0.893
		c-2.978,0-5.266-0.728-6.865-2.182c-1.6-1.455-2.399-3.313-2.399-5.577c0-1.327,0.302-2.539,0.906-3.637
		c0.604-1.098,1.395-1.979,2.374-2.642c0.978-0.664,2.08-1.166,3.305-1.506c0.902-0.238,2.263-0.468,4.083-0.689
		c3.709-0.442,6.44-0.97,8.193-1.582c0.017-0.63,0.026-1.029,0.026-1.2c0-1.871-0.434-3.19-1.302-3.956
		c-1.174-1.037-2.918-1.557-5.232-1.557c-2.161,0-3.756,0.379-4.786,1.136c-1.029,0.758-1.791,2.098-2.284,4.02l-4.492-0.612
		c0.409-1.923,1.081-3.475,2.017-4.658c0.936-1.182,2.288-2.093,4.058-2.73c1.77-0.638,3.82-0.957,6.151-0.957
		c2.314,0,4.194,0.272,5.641,0.816c1.446,0.545,2.51,1.229,3.19,2.055c0.68,0.825,1.157,1.867,1.429,3.127
		c0.153,0.782,0.23,2.194,0.23,4.236v6.126c0,4.271,0.098,6.972,0.293,8.104c0.195,1.132,0.583,2.216,1.161,3.254h-4.798
		C248.666,342.032,248.36,340.918,248.224,339.642z M247.841,329.382c-1.667,0.681-4.169,1.259-7.503,1.735
		c-1.889,0.272-3.225,0.579-4.007,0.919c-0.783,0.341-1.387,0.838-1.812,1.493c-0.426,0.655-0.638,1.383-0.638,2.182
		c0,1.226,0.463,2.246,1.391,3.063c0.927,0.816,2.284,1.225,4.071,1.225c1.77,0,3.344-0.387,4.722-1.161
		c1.378-0.774,2.391-1.833,3.037-3.178c0.494-1.037,0.74-2.569,0.74-4.594V329.382z"/>
	<path d="M269.637,338.876l0.664,4.059c-1.293,0.271-2.45,0.408-3.471,0.408c-1.667,0-2.96-0.264-3.879-0.791
		s-1.565-1.221-1.94-2.08c-0.374-0.859-0.561-2.668-0.561-5.424v-15.595h-3.369v-3.573h3.369v-6.713l4.568-2.756v9.469h4.62v3.573
		h-4.62v15.85c0,1.311,0.081,2.153,0.243,2.527c0.161,0.374,0.425,0.672,0.791,0.893c0.366,0.222,0.889,0.332,1.57,0.332
		C268.131,339.055,268.803,338.995,269.637,338.876z"/>
	<path d="M292.685,334.257l4.747,0.587c-0.749,2.773-2.136,4.926-4.16,6.457c-2.025,1.531-4.611,2.297-7.759,2.297
		c-3.965,0-7.108-1.221-9.431-3.662c-2.322-2.441-3.484-5.866-3.484-10.273c0-4.56,1.174-8.099,3.522-10.617
		s5.394-3.777,9.137-3.777c3.624,0,6.585,1.233,8.882,3.7c2.297,2.468,3.446,5.938,3.446,10.414c0,0.272-0.009,0.681-0.026,1.225
		h-20.214c0.17,2.979,1.012,5.258,2.527,6.841c1.514,1.582,3.403,2.373,5.666,2.373c1.685,0,3.122-0.442,4.313-1.327
		C291.042,337.608,291.987,336.196,292.685,334.257z M277.601,326.829h15.135c-0.204-2.279-0.783-3.989-1.735-5.13
		c-1.464-1.77-3.361-2.654-5.692-2.654c-2.11,0-3.884,0.706-5.321,2.118C278.549,322.576,277.754,324.465,277.601,326.829z"/>
	<path d="M315.885,334.895l4.543-0.715c0.255,1.821,0.966,3.216,2.131,4.186c1.165,0.971,2.795,1.455,4.888,1.455
		c2.109,0,3.675-0.43,4.696-1.289c1.021-0.858,1.531-1.867,1.531-3.024c0-1.037-0.451-1.854-1.353-2.45
		c-0.63-0.408-2.195-0.927-4.696-1.557c-3.369-0.851-5.705-1.586-7.006-2.208c-1.301-0.621-2.289-1.48-2.96-2.577
		c-0.672-1.098-1.008-2.311-1.008-3.638c0-1.208,0.276-2.326,0.83-3.356c0.553-1.029,1.306-1.884,2.259-2.564
		c0.715-0.527,1.688-0.974,2.922-1.34c1.233-0.366,2.556-0.549,3.969-0.549c2.127,0,3.995,0.306,5.603,0.919
		c1.608,0.612,2.794,1.441,3.56,2.488c0.766,1.046,1.293,2.446,1.583,4.198l-4.492,0.612c-0.205-1.395-0.796-2.483-1.774-3.267
		c-0.979-0.782-2.361-1.174-4.147-1.174c-2.11,0-3.616,0.349-4.518,1.046c-0.902,0.698-1.353,1.515-1.353,2.45
		c0,0.597,0.187,1.132,0.562,1.608c0.374,0.494,0.961,0.902,1.761,1.225c0.459,0.171,1.812,0.562,4.058,1.175
		c3.25,0.867,5.517,1.578,6.802,2.131s2.293,1.357,3.024,2.412s1.098,2.365,1.098,3.931c0,1.531-0.447,2.974-1.34,4.326
		c-0.894,1.353-2.182,2.398-3.867,3.139s-3.59,1.11-5.717,1.11c-3.522,0-6.207-0.731-8.052-2.194
		C317.573,339.939,316.395,337.771,315.885,334.895z"/>
	<path d="M362.414,334.257l4.747,0.587c-0.749,2.773-2.136,4.926-4.16,6.457c-2.025,1.531-4.611,2.297-7.759,2.297
		c-3.965,0-7.108-1.221-9.431-3.662c-2.322-2.441-3.484-5.866-3.484-10.273c0-4.56,1.174-8.099,3.522-10.617
		s5.394-3.777,9.137-3.777c3.624,0,6.585,1.233,8.882,3.7c2.297,2.468,3.446,5.938,3.446,10.414c0,0.272-0.009,0.681-0.026,1.225
		h-20.214c0.17,2.979,1.012,5.258,2.527,6.841c1.514,1.582,3.403,2.373,5.666,2.373c1.685,0,3.122-0.442,4.313-1.327
		C360.771,337.608,361.715,336.196,362.414,334.257z M347.329,326.829h15.135c-0.204-2.279-0.783-3.989-1.735-5.13
		c-1.464-1.77-3.361-2.654-5.692-2.654c-2.11,0-3.884,0.706-5.321,2.118C348.278,322.576,347.482,324.465,347.329,326.829z"/>
	<path d="M372.929,342.985V315.88h4.134v3.854c1.991-2.978,4.866-4.467,8.627-4.467c1.633,0,3.135,0.293,4.505,0.881
		c1.37,0.587,2.395,1.356,3.076,2.31c0.68,0.953,1.157,2.084,1.429,3.395c0.17,0.851,0.255,2.34,0.255,4.467v16.666h-4.594v-16.488
		c0-1.871-0.179-3.271-0.536-4.198c-0.357-0.927-0.991-1.667-1.901-2.221c-0.911-0.553-1.978-0.829-3.203-0.829
		c-1.957,0-3.646,0.621-5.066,1.863c-1.421,1.242-2.131,3.599-2.131,7.069v14.804H372.929z"/>
	<path d="M400.162,334.895l4.543-0.715c0.255,1.821,0.966,3.216,2.131,4.186c1.165,0.971,2.795,1.455,4.888,1.455
		c2.109,0,3.675-0.43,4.696-1.289c1.021-0.858,1.531-1.867,1.531-3.024c0-1.037-0.451-1.854-1.353-2.45
		c-0.63-0.408-2.195-0.927-4.696-1.557c-3.369-0.851-5.705-1.586-7.006-2.208c-1.301-0.621-2.289-1.48-2.96-2.577
		c-0.672-1.098-1.008-2.311-1.008-3.638c0-1.208,0.276-2.326,0.83-3.356c0.553-1.029,1.306-1.884,2.259-2.564
		c0.715-0.527,1.688-0.974,2.922-1.34c1.233-0.366,2.556-0.549,3.969-0.549c2.127,0,3.995,0.306,5.603,0.919
		c1.608,0.612,2.794,1.441,3.56,2.488c0.766,1.046,1.293,2.446,1.583,4.198l-4.492,0.612c-0.205-1.395-0.796-2.483-1.774-3.267
		c-0.979-0.782-2.361-1.174-4.147-1.174c-2.11,0-3.616,0.349-4.518,1.046c-0.902,0.698-1.353,1.515-1.353,2.45
		c0,0.597,0.187,1.132,0.562,1.608c0.374,0.494,0.961,0.902,1.761,1.225c0.459,0.171,1.812,0.562,4.058,1.175
		c3.25,0.867,5.517,1.578,6.802,2.131s2.293,1.357,3.024,2.412s1.098,2.365,1.098,3.931c0,1.531-0.447,2.974-1.34,4.326
		c-0.894,1.353-2.182,2.398-3.867,3.139s-3.59,1.11-5.717,1.11c-3.522,0-6.207-0.731-8.052-2.194
		C401.85,339.939,400.672,337.771,400.162,334.895z"/>
	<path d="M446.691,334.257l4.746,0.587c-0.748,2.773-2.135,4.926-4.16,6.457s-4.611,2.297-7.759,2.297
		c-3.965,0-7.108-1.221-9.431-3.662c-2.322-2.441-3.484-5.866-3.484-10.273c0-4.56,1.174-8.099,3.522-10.617
		s5.394-3.777,9.137-3.777c3.624,0,6.585,1.233,8.882,3.7c2.297,2.468,3.446,5.938,3.446,10.414c0,0.272-0.01,0.681-0.026,1.225
		h-20.214c0.17,2.979,1.012,5.258,2.527,6.841c1.514,1.582,3.403,2.373,5.667,2.373c1.684,0,3.121-0.442,4.312-1.327
		S445.992,336.196,446.691,334.257z M431.606,326.829h15.136c-0.205-2.279-0.783-3.989-1.736-5.13
		c-1.463-1.77-3.36-2.654-5.691-2.654c-2.11,0-3.884,0.706-5.321,2.118C432.555,322.576,431.759,324.465,431.606,326.829z"/>
	<path d="M470.018,329.433c0-5.02,1.396-8.737,4.187-11.153c2.33-2.008,5.172-3.012,8.523-3.012c3.727,0,6.772,1.221,9.138,3.662
		c2.365,2.442,3.548,5.815,3.548,10.12c0,3.488-0.523,6.232-1.57,8.231c-1.046,1.999-2.568,3.552-4.568,4.657
		c-1.999,1.106-4.182,1.659-6.547,1.659c-3.794,0-6.861-1.216-9.2-3.649C471.188,337.515,470.018,334.01,470.018,329.433z
		 M474.74,329.433c0,3.471,0.758,6.07,2.271,7.797c1.515,1.728,3.42,2.591,5.717,2.591c2.281,0,4.178-0.867,5.692-2.604
		c1.515-1.735,2.271-4.381,2.271-7.938c0-3.352-0.762-5.892-2.284-7.618c-1.523-1.727-3.416-2.591-5.68-2.591
		c-2.297,0-4.202,0.859-5.717,2.578C475.498,323.367,474.74,325.962,474.74,329.433z"/>
	<path d="M501.896,342.985v-23.532h-4.059v-3.573h4.059v-2.884c0-1.82,0.162-3.174,0.484-4.059c0.443-1.19,1.221-2.156,2.336-2.896
		c1.114-0.74,2.676-1.11,4.684-1.11c1.293,0,2.723,0.153,4.287,0.459l-0.688,4.008c-0.953-0.17-1.854-0.256-2.706-0.256
		c-1.395,0-2.382,0.298-2.96,0.894c-0.579,0.596-0.868,1.71-0.868,3.344v2.501h5.283v3.573h-5.283v23.532H501.896z"/>
	<path d="M539.875,338.876l0.664,4.059c-1.294,0.271-2.451,0.408-3.472,0.408c-1.667,0-2.96-0.264-3.88-0.791
		c-0.918-0.527-1.564-1.221-1.939-2.08c-0.374-0.859-0.561-2.668-0.561-5.424v-15.595h-3.369v-3.573h3.369v-6.713l4.568-2.756v9.469
		h4.619v3.573h-4.619v15.85c0,1.311,0.08,2.153,0.242,2.527c0.161,0.374,0.425,0.672,0.791,0.893
		c0.365,0.222,0.889,0.332,1.57,0.332C538.369,339.055,539.041,338.995,539.875,338.876z"/>
	<path d="M544.392,310.852v-5.283h4.594v5.283H544.392z M544.392,342.985V315.88h4.594v27.105H544.392z"/>
	<path d="M555.98,342.985V315.88h4.108v3.803c0.851-1.327,1.981-2.395,3.395-3.203c1.412-0.808,3.021-1.212,4.823-1.212
		c2.008,0,3.654,0.417,4.939,1.25c1.285,0.834,2.19,2,2.719,3.497c2.144-3.165,4.934-4.747,8.371-4.747
		c2.688,0,4.756,0.744,6.202,2.233s2.169,3.781,2.169,6.878v18.606h-4.568V325.91c0-1.837-0.148-3.16-0.447-3.969
		c-0.297-0.808-0.838-1.459-1.62-1.952s-1.702-0.74-2.757-0.74c-1.905,0-3.488,0.634-4.747,1.901s-1.889,3.297-1.889,6.087v15.748
		h-4.594v-17.611c0-2.041-0.374-3.572-1.123-4.594c-0.749-1.021-1.974-1.531-3.675-1.531c-1.294,0-2.489,0.341-3.586,1.021
		c-1.098,0.681-1.894,1.677-2.387,2.986c-0.494,1.311-0.74,3.199-0.74,5.666v14.063H555.98z"/>
	<path d="M618.078,334.257l4.746,0.587c-0.748,2.773-2.135,4.926-4.16,6.457s-4.611,2.297-7.759,2.297
		c-3.965,0-7.108-1.221-9.431-3.662s-3.484-5.866-3.484-10.273c0-4.56,1.175-8.099,3.523-10.617
		c2.348-2.519,5.393-3.777,9.137-3.777c3.624,0,6.585,1.233,8.882,3.7c2.297,2.468,3.446,5.938,3.446,10.414
		c0,0.272-0.01,0.681-0.026,1.225h-20.214c0.17,2.979,1.012,5.258,2.527,6.841c1.514,1.582,3.402,2.373,5.666,2.373
		c1.684,0,3.121-0.442,4.312-1.327S617.378,336.196,618.078,334.257z M602.993,326.829h15.136c-0.205-2.279-0.783-3.989-1.736-5.13
		c-1.463-1.77-3.36-2.654-5.691-2.654c-2.109,0-3.884,0.706-5.321,2.118C603.941,322.576,603.146,324.465,602.993,326.829z"/>
	<path d="M629.894,342.985v-5.232h5.232v5.232H629.894z"/>
</g>
<g>
</g>
<g>
</g>
<g>
</g>
<g>
</g>
<g>
</g>
<g>
</g>
</svg>
