<?xml version="1.0" encoding="utf-8"?>
<!-- Generator: Adobe Illustrator 16.0.0, SVG Export Plug-In . SVG Version: 6.00 Build 0)  -->
<!DOCTYPE svg PUBLIC "-//W3C//DTD SVG 1.1//EN" "http://www.w3.org/Graphics/SVG/1.1/DTD/svg11.dtd">
<svg version="1.1" id="Layer_1" xmlns="http://www.w3.org/2000/svg" xmlns:xlink="http://www.w3.org/1999/xlink" x="0px" y="0px"
	 width="128px" height="88px" viewBox="0 0 128 88" enable-background="new 0 0 128 88" xml:space="preserve">
<g>
	<path fill="none" stroke="#333333" stroke-width="7" stroke-miterlimit="10" d="M4.5-48.381c0,0,19.528,28.881,55.221,28.881
		h-0.838c35.691,0,54.617-28.939,54.617-28.939v-0.238c0,0-18.926-25.822-54.617-25.822h0.838C24.028-74.5,4.5-48.691,4.5-48.691
		V-48.381z"/>
	<path fill="#333333" d="M82.973-51.59c0,13.01-10.545,23.555-23.553,23.555c-13.008,0-23.553-10.545-23.553-23.555
		c0-13.006,10.545-23.556,23.553-23.556C72.428-75.146,82.973-64.596,82.973-51.59z"/>
	<path fill="#F2F2F2" d="M56.843-58.198c0,3.21-2.605,5.818-5.819,5.818c-3.21,0-5.818-2.608-5.818-5.818
		c0-3.218,2.608-5.818,5.818-5.818C54.238-64.016,56.843-61.416,56.843-58.198z"/>
</g>
<g>
	<path fill="#333333" d="M20.508-84.546c0,0,0.439-0.073,1.262-0.211c0.824-0.116,2.034-0.316,3.577-0.478
		c1.543-0.171,3.419-0.381,5.575-0.536c2.155-0.158,4.59-0.301,7.248-0.378c5.315-0.168,11.526-0.116,18.169,0.331
		c1.662,0.099,3.349,0.234,5.055,0.402c1.708,0.144,3.435,0.333,5.171,0.551c3.479,0.398,6.997,0.969,10.51,1.57
		c3.502,0.68,7.002,1.388,10.411,2.279c1.707,0.437,3.398,0.869,5.049,1.391c1.658,0.487,3.293,0.981,4.878,1.555
		c1.593,0.536,3.153,1.094,4.656,1.71c1.513,0.577,2.975,1.207,4.383,1.847c1.417,0.613,2.765,1.297,4.062,1.959
		c1.304,0.643,2.528,1.353,3.695,2.036c1.174,0.665,2.269,1.364,3.288,2.062c1.024,0.686,1.996,1.326,2.851,2.027
		c0.861,0.688,1.693,1.278,2.4,1.914c0.698,0.641,1.34,1.23,1.919,1.762c0.286,0.266,0.557,0.517,0.812,0.753
		c0.235,0.26,0.456,0.503,0.661,0.73c0.406,0.452,0.751,0.835,1.031,1.147c0.547,0.626,0.839,0.961,0.839,0.961
		s-0.383-0.228-1.101-0.655c-0.725-0.414-1.707-1.109-3.071-1.817c-0.671-0.362-1.414-0.763-2.223-1.199
		c-0.818-0.414-1.724-0.827-2.672-1.284c-0.938-0.472-1.971-0.914-3.065-1.362c-0.541-0.232-1.095-0.47-1.663-0.713
		c-0.57-0.237-1.172-0.444-1.775-0.674c-1.21-0.455-2.447-0.962-3.781-1.378c-1.319-0.443-2.661-0.941-4.088-1.345
		c-1.414-0.431-2.85-0.907-4.357-1.296c-0.746-0.211-1.5-0.425-2.262-0.64c-0.768-0.198-1.543-0.397-2.325-0.598
		c-3.116-0.828-6.38-1.547-9.695-2.281c-3.321-0.71-6.711-1.383-10.113-2.005c-6.809-1.245-13.668-2.311-20.127-3.251
		c-6.458-0.944-12.518-1.753-17.728-2.455c-5.228-0.717-9.583-1.315-12.633-1.733c-1.531-0.194-2.736-0.402-3.559-0.507
		C20.947-84.48,20.508-84.546,20.508-84.546z"/>
</g>
<g>
	<rect x="26" fill="#333333" stroke="#FEC700" stroke-width="2" stroke-miterlimit="10" width="95" height="65"/>
	<rect x="16" y="10" fill="#333333" stroke="#FEC700" stroke-width="2" stroke-miterlimit="10" width="94" height="65"/>
	<rect x="7" y="22" fill="#333333" stroke="#FEC700" stroke-width="2" stroke-miterlimit="10" width="94" height="65"/>
</g>
<g>
	<path fill="#333333" d="M255.465-20.847c-4.52,3.494-7.356,5.514-8.511,6.058c-1.73,0.801-3.574,1.202-5.529,1.202
		c-3.046,0-5.554-1.042-7.525-3.125c-1.971-2.083-2.957-4.824-2.957-8.222c0-2.147,0.481-4.006,1.442-5.578
		c1.314-2.179,3.599-4.231,6.853-6.154c3.253-1.923,8.662-4.263,16.228-7.02v-1.731c0-4.392-0.697-7.405-2.092-9.04
		s-3.422-2.452-6.082-2.452c-2.02,0-3.623,0.545-4.809,1.635c-1.219,1.09-1.827,2.34-1.827,3.75l0.097,2.789
		c0,1.475-0.378,2.613-1.131,3.414s-1.738,1.202-2.957,1.202c-1.186,0-2.156-0.416-2.908-1.25c-0.754-0.833-1.13-1.971-1.13-3.414
		c0-2.757,1.41-5.29,4.23-7.597c2.82-2.308,6.78-3.462,11.877-3.462c3.91,0,7.116,0.657,9.616,1.971
		c1.892,0.994,3.285,2.548,4.184,4.664c0.577,1.378,0.865,4.2,0.865,8.462v14.954c0,4.2,0.08,6.772,0.24,7.717
		c0.16,0.946,0.425,1.58,0.794,1.899c0.368,0.321,0.793,0.481,1.273,0.481c0.513,0,0.962-0.112,1.347-0.336
		c0.673-0.417,1.972-1.587,3.895-3.51v2.693c-3.59,4.808-7.02,7.212-10.289,7.212c-1.571,0-2.821-0.546-3.751-1.635
		S255.496-18.218,255.465-20.847z M255.465-23.972v-16.781c-4.841,1.923-7.966,3.286-9.376,4.087
		c-2.533,1.411-4.344,2.885-5.434,4.423c-1.09,1.539-1.635,3.222-1.635,5.049c0,2.308,0.688,4.224,2.067,5.746
		c1.378,1.522,2.965,2.284,4.761,2.284C248.284-19.164,251.489-20.767,255.465-23.972z"/>
</g>
<g>
	<path fill="#333333" d="M203.361-32.531h-31.782L163.309-14.5H151.24l36.735-78.904L223.412-14.5h-12.261L203.361-32.531z
		 M198.794-43.061l-11.011-25.244l-11.54,25.244H198.794z"/>
</g>
<g>
</g>
<g>
</g>
<g>
</g>
<g>
</g>
<g>
</g>
<g>
</g>
<g>
</g>
<g>
</g>
<g>
</g>
<g>
</g>
<g>
</g>
<g>
</g>
<g>
</g>
<g>
</g>
<g>
</g>
</svg>
