<?xml version="1.0" encoding="utf-8"?>
<!-- Generator: Adobe Illustrator 16.0.0, SVG Export Plug-In . SVG Version: 6.00 Build 0)  -->
<!DOCTYPE svg PUBLIC "-//W3C//DTD SVG 1.1//EN" "http://www.w3.org/Graphics/SVG/1.1/DTD/svg11.dtd">
<svg version="1.1" id="Layer_1" xmlns="http://www.w3.org/2000/svg" xmlns:xlink="http://www.w3.org/1999/xlink" x="0px" y="0px"
	 width="329.439px" height="61px" viewBox="0 0 329.439 61" enable-background="new 0 0 329.439 61" xml:space="preserve">
<g>
	<path fill="#FFFFFF" d="M32.115,58.295c0,0,0.351-3.151-5.951-5.601c-6.301-2.45-5.251-6.653-5.251-6.653
		c-8.753,0-9.103-5.949-10.152-10.852c-1.05-4.901-7.7-4.901-7.7-4.901s6.65,0,7.7-4.899c1.05-4.902,1.399-10.851,10.152-10.851
		c0,0-1.05-4.203,5.251-6.653c6.302-2.452,5.951-5.6,5.951-5.6h266.471c0,0-0.354,3.147,5.949,5.6c6.3,2.45,5.252,6.653,5.252,6.653
		c8.754,0,9.102,5.949,10.153,10.851c1.048,4.899,7.699,4.899,7.699,4.899s-6.651,0-7.699,4.901
		c-1.052,4.902-1.399,10.852-10.153,10.852c0,0,1.048,4.203-5.252,6.653c-6.303,2.449-5.949,5.601-5.949,5.601H32.115z"/>
</g>
</svg>
