<?xml version="1.0" encoding="utf-8"?>
<!-- Generator: Adobe Illustrator 16.0.0, SVG Export Plug-In . SVG Version: 6.00 Build 0)  -->
<!DOCTYPE svg PUBLIC "-//W3C//DTD SVG 1.1//EN" "http://www.w3.org/Graphics/SVG/1.1/DTD/svg11.dtd">
<svg version="1.1" id="Layer_1" xmlns="http://www.w3.org/2000/svg" xmlns:xlink="http://www.w3.org/1999/xlink" x="0px" y="0px"
	 width="87.167px" height="44.833px" viewBox="0 0 87.167 44.833" enable-background="new 0 0 87.167 44.833" xml:space="preserve">
<g>
	<g>
		<path fill-rule="evenodd" clip-rule="evenodd" fill="#1D1D1B" d="M50.987,37.864c0.215,0.542,0.419,1.049,0.676,1.688
			c-1.737,0.451-1.917-1.745-3.382-1.639c-0.049,0.516-0.109,1.111-0.165,1.709c-0.979-1.363-1.838-2.719-3.77-3.127
			c0,0.979,0,1.897,0,2.815c-0.126,0.039-0.247,0.075-0.371,0.114c-0.235-1.798-0.612-3.491-2.604-4.206c0,0.849,0,1.619,0,2.392
			c-0.777-1.303-1.25-2.777-2.859-3.57c0.059,0.79,0.109,1.435,0.157,2.08c-0.077,0.029-0.157,0.059-0.237,0.083
			c-0.873-1.366-1.747-2.733-2.624-4.1c-0.113,0.046-0.222,0.092-0.336,0.137c0,0.955,0,1.91,0,2.862
			c-0.857-1.609-0.792-3.679-2.612-4.739c-0.178,1.345-0.341,2.596-0.511,3.848c-0.117,0.005-0.24,0.01-0.362,0.015
			c0.017-1.979-0.051-3.938-1.397-5.6c-0.17,1.208-0.333,2.413-0.503,3.618c-0.542-1.723-0.085-3.627-1.29-5.519
			c-0.313,1.438-0.558,2.569-0.808,3.703c-0.125,0.003-0.253,0.006-0.384,0.01c0.065-1.861,0.373-3.772-0.895-5.501
			c-0.78,1.12-1.502,2.141-2.221,3.162c-0.098-0.049-0.196-0.095-0.294-0.144c0.348-1.019,0.694-2.037,1.101-3.21
			c-1.048,0.592-1.9,1.074-2.75,1.558c-0.059-0.078-0.111-0.158-0.167-0.238c0.745-0.783,1.489-1.57,2.235-2.357
			c-0.541-0.219-0.933-0.377-1.507-0.61c0.804-0.452,1.36-0.763,2.053-1.151c-0.727-0.93-1.44-1.845-2.164-2.776
			c0.614-0.273,0.614-0.273,1.809,0.851c-0.119-0.595-0.225-1.11-0.33-1.625c0.107-0.029,0.219-0.062,0.33-0.091
			c0.328,0.883,0.658,1.768,0.988,2.65c0.051-0.007,0.096-0.012,0.142-0.021c-0.082-1.002-0.163-2.002-0.245-3.005
			c0.114-0.027,0.229-0.049,0.343-0.075c0.21,1.004,0.421,2.008,0.722,3.443c1.747-1.58,3.257-2.94,4.762-4.3
			c0.059,0.018,0.113,0.033,0.165,0.05c-0.444,0.85-0.892,1.7-1.482,2.83c1.28-0.756,2.33-1.378,3.487-2.065
			c0.054,0.381,0.088,0.631,0.16,1.156c1.9-1.15,3.67-2.224,5.442-3.299c0.075,0.095,0.155,0.188,0.23,0.281
			c-0.813,0.688-1.627,1.374-2.441,2.059c0.051,0.105,0.1,0.211,0.15,0.315c1.992-0.985,3.982-1.969,5.974-2.952
			c0.067,0.115,0.134,0.23,0.206,0.349c-0.927,0.581-1.861,1.164-2.789,1.747c0.041,0.083,0.083,0.167,0.126,0.25
			c1.046-0.385,2.113-0.735,3.145-1.164c1.022-0.429,2.013-0.938,3.02-1.413c0.05,0.091,0.1,0.18,0.15,0.269
			c-0.449,0.339-0.899,0.678-1.349,1.017c0.036,0.091,0.077,0.18,0.111,0.27c2.01-0.675,4.012-1.35,6.294-2.121
			c-0.389,0.485-0.579,0.724-0.968,1.211c2.353-0.677,4.442-1.276,6.532-1.875c0.051,0.148,0.102,0.295,0.146,0.446
			c-1.403,0.47-2.814,0.94-4.225,1.411c0.029,0.125,0.055,0.253,0.081,0.381c1.069-0.173,2.139-0.335,3.21-0.522
			c1.118-0.196,2.24-0.416,3.208-0.598c1.557,1.676,3.574,0.503,5.325,1.118c-0.349,0.205-0.658,0.393-0.971,0.58
			c-0.008,0.129-0.02,0.256-0.025,0.384c2.001,0.311,4.005,0.619,6.008,0.928c0.015,0.107,0.024,0.213,0.043,0.318
			c-0.928,0.144-1.855,0.29-3.12,0.485c2.098,1.309,4.103,1.674,6.238,1.562c0.005,0.132,0.008,0.266,0.013,0.398
			c-1.165,0.202-2.334,0.4-3.804,0.654c0.803,0.32,1.404,0.613,2.037,0.802c0.816,0.243,1.666,0.379,2.48,0.625
			c0.187,0.056,0.291,0.37,0.435,0.566c-0.224,0.059-0.456,0.183-0.671,0.161c-0.49-0.054-0.967-0.181-1.574-0.3
			c0.78,1.347,1.517,2.47,2.106,3.668c0.865,1.767,1.723,3.554,2.409,5.398c0.478,1.278-0.979,2.962-2.537,3.038
			c-0.873,0.043-1.76-0.136-2.642-0.163c-0.394-0.015-0.783,0.1-1.179,0.151c-0.018,0.125-0.037,0.244-0.061,0.363
			c0.318,0.192,0.634,0.398,0.959,0.574c0.348,0.188,0.712,0.343,1.005,0.751c-1.358-0.28-2.722-0.563-4.434-0.919
			c0.805,0.581,1.323,0.958,2.112,1.528c-2.43-0.459-4.495-0.848-6.556-1.237c-0.037,0.101-0.08,0.202-0.114,0.302
			c0.935,0.751,1.863,1.5,2.801,2.253c-0.053,0.102-0.102,0.201-0.157,0.302c-1.482-0.477-2.96-0.953-4.736-1.526
			c0.392,0.568,0.615,0.895,0.844,1.229c-2.141,0.426-2.38,0.309-3.174-1.517c-0.335,0.104-0.676,0.216-1.072,0.343
			c0.256,0.389,0.511,0.777,0.764,1.162c-0.066,0.126-0.136,0.255-0.202,0.381c-1.288-0.501-2.571-1.004-4.121-1.608
			c0.384,0.62,0.62,0.999,0.902,1.456C53.495,40.106,52.68,37.672,50.987,37.864z M29.378,23.335c0.807,0.5,1.384,0.828,1.933,1.203
			c0.541,0.374,1.012,0.846,1.572,1.176c2.932,1.744,5.861,3.484,8.825,5.166c1.271,0.722,2.561,1.499,3.938,1.922
			c2.488,0.759,4.928,1.271,7.693,1.009c4.681-0.447,9.29-0.903,13.773-2.398c1.259-0.418,2.622-0.624,3.948-0.674
			c1.522-0.061,1.93-0.391,1.118-1.693c-1.064-1.705-1.486-3.824-3.362-5.035c-1.784-1.151-3.43-2.517-5.181-3.732
			c-0.687-0.477-1.349-0.868-0.829-1.987c-1.115,1.742-2.483,1.234-3.829,0.667c-0.496-0.207-0.95-0.514-1.418-0.777
			c0.064-0.098,0.13-0.195,0.197-0.295c1.019,0.248,2.031,0.495,3.048,0.741c0.019-0.075,0.036-0.151,0.056-0.227
			c-1.104-0.484-2.207-0.968-3.36-1.475c-0.174,0.522-0.413,1.042-0.518,1.589c-0.318,1.688-1.084,3.11-2.272,4.358
			c-3.657,3.837-9.032,1.793-10.182-2.183c-0.233-0.801-0.658-1.544-0.993-2.314c-0.892,0.676-1.579,1.196-2.168,1.64
			c-0.47-0.573-0.828-1.005-0.995-1.209c-0.857,0.564-1.422,1.129-2.106,1.354c-2.386,0.79-4.817,1.431-7.206,2.202
			C30.429,22.564,29.881,23.036,29.378,23.335z M70.124,34.63c-0.887,0-1.567,0-2.242,0c0.002,0.114,0.004,0.228,0.009,0.34
			C68.586,34.683,69.296,36,70.124,34.63z"/>
		<path fill-rule="evenodd" clip-rule="evenodd" fill="#1D1D1B" d="M3.93,11.941c0.715,0.073,1.3,0.072,1.852,0.204
			c0.867,0.208,1.721,0.485,2.57,0.77c3.579,1.196,6.946-0.034,10.273-1.026c4.627-1.383,9.156-3.071,13.771-4.505
			c1.668-0.519,3.45-0.68,5.176-1.004c2.644-0.492,5.277-1.014,7.925-1.465c0.996-0.169,2.021-0.219,3.037-0.25
			c9.584-0.293,18.905,0.84,27.26,5.951c2.194,1.345,3.949,3.469,5.77,5.366c0.622,0.648,0.87,1.679,1.193,2.57
			c0.089,0.249-0.171,0.624-0.318,1.099c1.79,2.037,1.583,5.047-0.457,5.738c-1.519-1.776-2.932-3.581-4.51-5.229
			c-3.279-3.438-6.972-6.238-11.793-7.226c-3.223-0.661-6.375-1.782-9.625-2.153c-3.866-0.443-7.806-0.481-11.706-0.363
			c-2.98,0.09-5.991,0.512-8.92,1.124c-3.246,0.679-6.402,1.786-9.622,2.625c-4.059,1.055-8.005,2.748-12.324,2.443
			c-3.177-0.224-6.368-0.516-8.694-3.139c-0.245-0.275-0.498-0.54-0.724-0.828C4,12.559,4.015,12.412,3.93,11.941z M51.071,7.132
			c0.089-1.15-0.961-1.794-2.489-1.67C49.459,6.048,50.172,6.529,51.071,7.132z"/>
		<path fill-rule="evenodd" clip-rule="evenodd" fill="#1D1D1B" d="M52.608,27.526c0.438-0.851-0.967-1.979,0.374-2.379
			c0.736-0.217,1.641,0.112,2.375,0.185c-0.11-0.472-0.521-1.183-0.343-1.693c0.219-0.629,0.924-1.089,1.406-1.605
			c1.147,0.191,2.28,0.378,3.577,0.594c-0.271,0.416-0.433,0.729-0.653,0.99c-1.721,2.019-3.383,4.048-6.077,4.947
			c-2.63,0.882-3.122,0.641-3.138-2.151c0-0.157,0.024-0.313,0.029-0.438C51.88,24.979,51.895,26.771,52.608,27.526z"/>
		<path fill-rule="evenodd" clip-rule="evenodd" fill="#1D1D1B" d="M57.35,19.251c1.271,0.263,2.346,0.458,3.406,0.715
			c0.623,0.149,0.803,0.559,0.362,1.082c-0.373,0.437-0.872,1.223-1.193,1.167c-0.972-0.17-1.955-0.575-2.774-1.123
			C56.927,20.941,57.262,19.962,57.35,19.251z"/>
		<path fill-rule="evenodd" clip-rule="evenodd" fill="#1D1D1B" d="M46.806,27.872c0.538-0.797,1.074-1.59,1.864-2.753
			c0.607,1.348,1.11,2.459,1.616,3.583c-1.303,0.513-3.011,0.029-3.439-0.869L46.806,27.872z"/>
		<path fill-rule="evenodd" clip-rule="evenodd" fill="#1D1D1B" d="M46.847,27.833c-1.284,0.692-1.707-0.608-2.74-0.957
			c0.81-0.897,1.456-1.606,2.119-2.338c1.068,0.278,1.473,0.85,0.977,1.94c-0.196,0.434-0.268,0.927-0.396,1.394L46.847,27.833z"/>
		<path fill-rule="evenodd" clip-rule="evenodd" fill="#1D1D1B" d="M41.404,22.906c0.582-0.224,0.983-0.373,1.385-0.535
			c0.41-0.165,0.819-0.344,1.232-0.518c0.916,1.12,0.685,1.688-1.384,3.1C42.253,24.314,41.873,23.688,41.404,22.906z"/>
		<path fill-rule="evenodd" clip-rule="evenodd" fill="#1D1D1B" d="M41.481,22.516c-0.689-1.757,0.065-2.785,1.622-2.605
			c0.227,0.024,0.532,0.266,0.607,0.476c0.073,0.207-0.017,0.606-0.18,0.736C42.906,21.605,42.232,22.013,41.481,22.516z"/>
		<path fill-rule="evenodd" clip-rule="evenodd" fill="#1D1D1B" d="M45.584,24.124c-0.435,0.7-0.865,1.4-1.395,2.253
			c-0.477-0.389-0.854-0.695-1.371-1.117c0.904-0.578,1.645-1.048,2.391-1.521C45.331,23.865,45.457,23.995,45.584,24.124z"/>
	</g>
	<path fill-rule="evenodd" clip-rule="evenodd" fill="#FFFFFF" d="M70.406,34.273c-0.828,1.37-1.541,0.054-2.238,0.34
		c0-0.113-0.003-0.224-0.007-0.34C68.841,34.273,69.52,34.273,70.406,34.273z"/>
	<path fill-rule="evenodd" clip-rule="evenodd" fill="#FFFFFF" d="M51.353,6.776c-0.899-0.604-1.613-1.084-2.488-1.671
		C50.393,4.981,51.439,5.627,51.353,6.776z"/>
	<g>
		<path fill-rule="evenodd" clip-rule="evenodd" fill="#009DE1" d="M51.265,36.032c0.217,0.543,0.423,1.048,0.679,1.688
			c-1.737,0.453-1.915-1.743-3.38-1.637c-0.054,0.514-0.109,1.111-0.171,1.709c-0.977-1.363-1.832-2.72-3.767-3.127
			c0,0.979,0,1.896,0,2.816c-0.123,0.036-0.245,0.075-0.367,0.111c-0.232-1.796-0.618-3.49-2.604-4.206c0,0.851,0,1.623,0,2.394
			c-0.779-1.303-1.252-2.777-2.859-3.572c0.059,0.792,0.111,1.437,0.158,2.08c-0.082,0.031-0.158,0.061-0.237,0.085
			c-0.875-1.365-1.753-2.733-2.625-4.1c-0.114,0.046-0.229,0.093-0.339,0.137c0,0.955,0,1.909,0,2.862
			c-0.859-1.611-0.791-3.68-2.609-4.738c-0.181,1.344-0.341,2.595-0.512,3.847c-0.121,0.004-0.242,0.01-0.363,0.017
			c0.017-1.979-0.052-3.938-1.394-5.604c-0.173,1.208-0.34,2.413-0.51,3.62c-0.539-1.723-0.083-3.627-1.29-5.521
			c-0.309,1.44-0.559,2.573-0.803,3.706c-0.127,0-0.256,0.007-0.389,0.009c0.063-1.861,0.372-3.772-0.89-5.501
			c-0.787,1.12-1.503,2.139-2.22,3.162c-0.102-0.049-0.198-0.093-0.295-0.142c0.349-1.021,0.695-2.038,1.095-3.212
			c-1.045,0.59-1.894,1.076-2.748,1.557c-0.057-0.079-0.108-0.157-0.164-0.235c0.743-0.787,1.486-1.571,2.234-2.359
			c-0.541-0.218-0.934-0.376-1.507-0.61c0.808-0.452,1.36-0.764,2.056-1.153c-0.727-0.929-1.442-1.843-2.17-2.775
			c0.622-0.273,0.622-0.273,1.814,0.851c-0.121-0.595-0.227-1.11-0.328-1.625c0.108-0.028,0.215-0.06,0.328-0.09
			c0.33,0.882,0.66,1.768,0.989,2.65c0.049-0.006,0.095-0.012,0.144-0.02c-0.085-1.002-0.165-2.003-0.25-3.006
			c0.119-0.027,0.229-0.049,0.346-0.075c0.208,1.005,0.418,2.008,0.723,3.443c1.742-1.577,3.254-2.939,4.761-4.299
			c0.056,0.018,0.109,0.033,0.167,0.049c-0.449,0.85-0.893,1.701-1.484,2.831c1.28-0.757,2.327-1.379,3.488-2.065
			c0.05,0.381,0.086,0.631,0.16,1.155c1.896-1.15,3.666-2.222,5.437-3.299c0.077,0.095,0.155,0.188,0.234,0.281
			c-0.812,0.688-1.628,1.374-2.436,2.06c0.049,0.104,0.096,0.211,0.147,0.313c1.99-0.984,3.98-1.968,5.969-2.95
			c0.072,0.115,0.14,0.229,0.207,0.348c-0.929,0.582-1.858,1.164-2.787,1.748c0.042,0.083,0.085,0.167,0.126,0.249
			c1.048-0.384,2.114-0.733,3.143-1.163c1.025-0.429,2.013-0.939,3.017-1.412c0.056,0.09,0.106,0.178,0.156,0.268
			c-0.452,0.339-0.902,0.677-1.352,1.017c0.039,0.09,0.077,0.179,0.118,0.27c2-0.675,4.008-1.35,6.287-2.121
			c-0.384,0.484-0.578,0.725-0.967,1.21c2.352-0.675,4.443-1.273,6.534-1.873c0.049,0.147,0.099,0.295,0.148,0.445
			c-1.41,0.471-2.821,0.939-4.226,1.41c0.025,0.126,0.051,0.254,0.08,0.381c1.068-0.173,2.141-0.333,3.209-0.521
			c1.12-0.196,2.236-0.416,3.208-0.598c1.553,1.677,3.575,0.501,5.322,1.118c-0.344,0.204-0.654,0.392-0.968,0.58
			c-0.007,0.128-0.02,0.256-0.027,0.384c2.005,0.311,4.006,0.619,6.01,0.927c0.013,0.107,0.026,0.215,0.044,0.32
			c-0.929,0.144-1.854,0.288-3.12,0.484c2.098,1.309,4.103,1.675,6.24,1.562c0.003,0.131,0.007,0.267,0.012,0.398
			c-1.168,0.201-2.332,0.399-3.808,0.654c0.802,0.319,1.405,0.613,2.039,0.802c0.819,0.245,1.667,0.378,2.481,0.625
			c0.187,0.057,0.291,0.371,0.432,0.565c-0.224,0.061-0.456,0.186-0.671,0.162c-0.485-0.052-0.967-0.18-1.576-0.3
			c0.785,1.348,1.516,2.473,2.106,3.669c0.87,1.767,1.724,3.552,2.411,5.396c0.476,1.28-0.975,2.964-2.532,3.039
			c-0.878,0.044-1.76-0.135-2.649-0.162c-0.389-0.015-0.782,0.098-1.174,0.151c-0.019,0.123-0.04,0.244-0.06,0.363
			c0.317,0.192,0.627,0.398,0.959,0.574c0.348,0.188,0.712,0.343,1.004,0.753c-1.361-0.284-2.724-0.565-4.432-0.921
			c0.802,0.581,1.321,0.957,2.108,1.528c-2.425-0.457-4.492-0.85-6.556-1.237c-0.039,0.101-0.076,0.202-0.117,0.302
			c0.94,0.751,1.873,1.5,2.805,2.253c-0.049,0.102-0.104,0.201-0.155,0.302c-1.48-0.477-2.963-0.953-4.736-1.526
			c0.389,0.568,0.612,0.896,0.839,1.229c-2.13,0.425-2.375,0.309-3.169-1.519c-0.339,0.108-0.681,0.216-1.075,0.343
			c0.258,0.393,0.509,0.779,0.764,1.163c-0.068,0.127-0.134,0.256-0.199,0.382c-1.288-0.501-2.576-1.004-4.121-1.608
			c0.386,0.619,0.62,0.999,0.904,1.456C53.777,38.275,52.963,35.839,51.265,36.032z M29.659,21.503
			c0.803,0.501,1.384,0.829,1.935,1.206c0.541,0.372,1.014,0.843,1.572,1.176c2.929,1.742,5.862,3.48,8.827,5.164
			c1.265,0.724,2.557,1.497,3.938,1.922c2.479,0.761,4.921,1.271,7.687,1.009c4.68-0.447,9.292-0.903,13.78-2.398
			c1.252-0.418,2.619-0.624,3.946-0.676c1.523-0.058,1.932-0.389,1.115-1.693c-1.064-1.704-1.486-3.822-3.358-5.033
			c-1.788-1.152-3.436-2.519-5.183-3.733c-0.692-0.477-1.349-0.867-0.828-1.987c-1.118,1.742-2.484,1.236-3.833,0.667
			c-0.493-0.207-0.945-0.515-1.418-0.778c0.067-0.098,0.135-0.195,0.203-0.293c1.017,0.248,2.031,0.494,3.043,0.741
			c0.021-0.075,0.039-0.153,0.058-0.229c-1.103-0.483-2.211-0.966-3.362-1.471c-0.173,0.52-0.409,1.041-0.516,1.587
			c-0.316,1.689-1.082,3.109-2.276,4.357c-3.655,3.838-9.028,1.794-10.177-2.182c-0.233-0.802-0.659-1.545-0.997-2.313
			c-0.89,0.674-1.577,1.194-2.165,1.639c-0.474-0.573-0.828-1.005-0.995-1.21c-0.858,0.564-1.427,1.129-2.107,1.355
			c-2.384,0.79-4.815,1.429-7.204,2.199C30.71,20.733,30.163,21.204,29.659,21.503z M70.406,32.799c-0.887,0-1.565,0-2.245,0
			c0.004,0.114,0.007,0.228,0.007,0.34C68.865,32.852,69.578,34.169,70.406,32.799z"/>
		<path fill-rule="evenodd" clip-rule="evenodd" fill="#009DE1" d="M4.211,10.11c0.715,0.074,1.298,0.071,1.852,0.204
			c0.869,0.209,1.723,0.486,2.57,0.771c3.576,1.197,6.947-0.033,10.271-1.027c4.625-1.383,9.161-3.071,13.771-4.505
			c1.667-0.519,3.452-0.681,5.184-1.003c2.635-0.493,5.269-1.015,7.918-1.466c0.996-0.169,2.021-0.22,3.037-0.25
			c9.583-0.292,18.904,0.84,27.259,5.951c2.2,1.346,3.951,3.47,5.77,5.367c0.622,0.647,0.874,1.679,1.19,2.571
			c0.093,0.248-0.163,0.623-0.316,1.097c1.794,2.037,1.59,5.048-0.451,5.739c-1.524-1.777-2.938-3.58-4.51-5.229
			c-3.283-3.439-6.973-6.239-11.798-7.227c-3.221-0.661-6.379-1.781-9.625-2.152c-3.867-0.444-7.806-0.482-11.701-0.364
			c-2.988,0.091-5.994,0.512-8.921,1.124c-3.249,0.679-6.403,1.786-9.62,2.625c-4.059,1.054-8.008,2.748-12.325,2.444
			c-3.176-0.225-6.368-0.516-8.696-3.14c-0.244-0.274-0.497-0.54-0.724-0.829C4.276,10.727,4.297,10.58,4.211,10.11z M51.353,5.302
			c0.087-1.152-0.96-1.795-2.488-1.672C49.739,4.217,50.453,4.697,51.353,5.302z"/>
		<path fill-rule="evenodd" clip-rule="evenodd" fill="#009DE1" d="M52.893,25.695c0.429-0.851-0.969-1.98,0.37-2.379
			c0.74-0.219,1.641,0.111,2.376,0.186c-0.113-0.473-0.52-1.185-0.34-1.694c0.219-0.628,0.924-1.091,1.4-1.606
			c1.148,0.19,2.283,0.377,3.579,0.595c-0.271,0.415-0.431,0.728-0.652,0.989c-1.725,2.018-3.384,4.049-6.076,4.95
			c-2.63,0.882-3.123,0.637-3.14-2.155c0-0.157,0.02-0.311,0.028-0.438C52.161,23.146,52.174,24.939,52.893,25.695z"/>
		<path fill-rule="evenodd" clip-rule="evenodd" fill="#009DE1" d="M57.632,17.421c1.271,0.262,2.343,0.457,3.402,0.714
			c0.627,0.15,0.806,0.559,0.368,1.081c-0.374,0.437-0.876,1.224-1.204,1.167c-0.966-0.171-1.946-0.576-2.764-1.124
			C57.209,19.109,57.539,18.132,57.632,17.421z"/>
		<path fill-rule="evenodd" clip-rule="evenodd" fill="#009DE1" d="M47.086,26.04c0.541-0.797,1.078-1.589,1.861-2.752
			c0.614,1.348,1.11,2.458,1.621,3.584c-1.304,0.512-3.009,0.029-3.443-0.871L47.086,26.04z"/>
		<path fill-rule="evenodd" clip-rule="evenodd" fill="#009DE1" d="M47.125,26.001c-1.283,0.691-1.706-0.607-2.739-0.956
			c0.813-0.897,1.456-1.607,2.119-2.339c1.071,0.277,1.477,0.851,0.979,1.939c-0.198,0.435-0.267,0.929-0.397,1.395L47.125,26.001z"
			/>
		<path fill-rule="evenodd" clip-rule="evenodd" fill="#009DE1" d="M41.684,21.075c0.583-0.224,0.988-0.374,1.386-0.535
			c0.412-0.167,0.819-0.344,1.233-0.518c0.914,1.119,0.683,1.688-1.386,3.101C42.534,22.483,42.154,21.855,41.684,21.075z"/>
		<path fill-rule="evenodd" clip-rule="evenodd" fill="#009DE1" d="M41.759,20.684c-0.681-1.755,0.068-2.784,1.626-2.605
			c0.227,0.024,0.531,0.266,0.607,0.476c0.074,0.207-0.016,0.607-0.186,0.735C43.192,19.772,42.515,20.182,41.759,20.684z"/>
		<path fill-rule="evenodd" clip-rule="evenodd" fill="#009DE1" d="M45.861,22.291c-0.429,0.702-0.865,1.402-1.388,2.253
			c-0.48-0.389-0.857-0.695-1.376-1.116c0.906-0.577,1.646-1.049,2.389-1.521C45.613,22.034,45.741,22.164,45.861,22.291z"/>
	</g>
	<g>
		<path fill-rule="evenodd" clip-rule="evenodd" fill="#E4007E" d="M49.788,36.122c0.221,0.542,0.423,1.05,0.682,1.687
			c-1.736,0.452-1.917-1.744-3.384-1.637c-0.051,0.517-0.109,1.112-0.166,1.708c-0.981-1.361-1.834-2.72-3.77-3.126
			c0,0.978,0,1.898,0,2.816c-0.123,0.035-0.244,0.075-0.364,0.11c-0.237-1.796-0.617-3.487-2.609-4.202c0,0.849,0,1.619,0,2.391
			c-0.777-1.304-1.248-2.776-2.854-3.571c0.057,0.79,0.107,1.436,0.157,2.082c-0.082,0.027-0.162,0.057-0.237,0.085
			c-0.878-1.367-1.752-2.736-2.627-4.102c-0.111,0.046-0.226,0.091-0.34,0.137c0,0.954,0,1.907,0,2.862
			c-0.859-1.611-0.787-3.68-2.609-4.739c-0.18,1.345-0.343,2.596-0.513,3.847c-0.119,0.005-0.242,0.011-0.363,0.016
			c0.015-1.979-0.05-3.938-1.397-5.6c-0.167,1.206-0.338,2.413-0.506,3.618c-0.536-1.725-0.082-3.627-1.289-5.519
			c-0.312,1.438-0.557,2.571-0.803,3.702c-0.132,0.004-0.26,0.007-0.387,0.011c0.062-1.861,0.372-3.772-0.893-5.503
			c-0.787,1.122-1.504,2.143-2.221,3.163c-0.096-0.048-0.196-0.094-0.292-0.143c0.346-1.019,0.696-2.037,1.094-3.21
			c-1.043,0.591-1.897,1.074-2.748,1.555c-0.057-0.077-0.111-0.157-0.162-0.235c0.743-0.787,1.486-1.57,2.229-2.355
			c-0.534-0.22-0.929-0.378-1.507-0.613c0.81-0.453,1.362-0.763,2.057-1.153c-0.723-0.93-1.44-1.843-2.171-2.775
			c0.624-0.273,0.624-0.273,1.815,0.852c-0.121-0.596-0.224-1.111-0.325-1.624c0.108-0.031,0.215-0.062,0.325-0.093
			c0.33,0.883,0.663,1.767,0.99,2.652c0.049-0.009,0.095-0.014,0.144-0.022c-0.082-1.001-0.167-2.003-0.248-3.008
			c0.116-0.023,0.225-0.048,0.343-0.074c0.212,1.006,0.423,2.01,0.722,3.444c1.749-1.579,3.255-2.939,4.763-4.3
			c0.054,0.017,0.112,0.034,0.168,0.049c-0.444,0.852-0.892,1.701-1.486,2.831c1.28-0.757,2.329-1.377,3.488-2.065
			c0.055,0.382,0.091,0.631,0.163,1.156c1.897-1.15,3.666-2.223,5.437-3.297c0.078,0.093,0.153,0.187,0.229,0.278
			c-0.81,0.689-1.625,1.375-2.435,2.061c0.051,0.104,0.1,0.21,0.147,0.313c1.994-0.983,3.982-1.967,5.974-2.949
			c0.067,0.115,0.134,0.23,0.206,0.346c-0.928,0.581-1.858,1.166-2.789,1.748c0.041,0.083,0.085,0.167,0.126,0.25
			c1.046-0.383,2.114-0.735,3.145-1.164c1.022-0.427,2.013-0.938,3.019-1.411c0.051,0.088,0.103,0.178,0.151,0.268
			c-0.447,0.339-0.899,0.678-1.35,1.017c0.037,0.089,0.075,0.178,0.117,0.27c2.002-0.675,4.01-1.35,6.289-2.12
			c-0.387,0.482-0.578,0.724-0.966,1.209c2.351-0.675,4.443-1.274,6.535-1.875c0.046,0.149,0.095,0.297,0.144,0.447
			c-1.41,0.469-2.816,0.939-4.226,1.409c0.024,0.126,0.053,0.254,0.08,0.382c1.071-0.172,2.145-0.335,3.214-0.522
			c1.12-0.195,2.236-0.416,3.206-0.596c1.555,1.675,3.572,0.5,5.324,1.115c-0.346,0.208-0.657,0.394-0.968,0.582
			c-0.012,0.128-0.02,0.255-0.028,0.384c2.001,0.31,4.006,0.617,6.007,0.926c0.017,0.108,0.03,0.214,0.043,0.321
			c-0.924,0.145-1.854,0.287-3.12,0.484c2.098,1.308,4.103,1.674,6.238,1.561c0.007,0.134,0.014,0.267,0.014,0.4
			c-1.166,0.201-2.33,0.399-3.803,0.652c0.798,0.32,1.405,0.613,2.039,0.803c0.813,0.246,1.662,0.379,2.479,0.625
			c0.185,0.056,0.292,0.37,0.435,0.567c-0.229,0.058-0.457,0.185-0.677,0.16c-0.486-0.051-0.965-0.181-1.57-0.301
			c0.78,1.349,1.516,2.472,2.104,3.67c0.87,1.767,1.725,3.552,2.412,5.396c0.477,1.278-0.979,2.964-2.538,3.038
			c-0.876,0.043-1.76-0.135-2.643-0.161c-0.391-0.015-0.789,0.097-1.176,0.151c-0.021,0.121-0.038,0.244-0.061,0.363
			c0.32,0.192,0.63,0.398,0.96,0.574c0.347,0.187,0.712,0.343,1.004,0.751c-1.363-0.28-2.723-0.564-4.433-0.921
			c0.802,0.583,1.319,0.959,2.106,1.528c-2.423-0.457-4.49-0.848-6.556-1.235c-0.037,0.1-0.076,0.2-0.114,0.302
			c0.938,0.751,1.869,1.499,2.804,2.253c-0.051,0.102-0.104,0.202-0.157,0.301c-1.479-0.478-2.958-0.954-4.736-1.525
			c0.389,0.568,0.614,0.895,0.844,1.229c-2.135,0.426-2.38,0.309-3.174-1.52c-0.336,0.107-0.676,0.217-1.074,0.343
			c0.26,0.394,0.513,0.78,0.766,1.164c-0.066,0.127-0.136,0.254-0.202,0.382c-1.288-0.503-2.573-1.004-4.119-1.608
			c0.384,0.617,0.62,0.998,0.904,1.455C52.301,38.363,51.484,35.931,49.788,36.122z M28.181,21.595
			c0.808,0.497,1.386,0.827,1.938,1.204c0.537,0.37,1.012,0.841,1.572,1.176c2.929,1.742,5.86,3.479,8.821,5.164
			c1.272,0.722,2.563,1.497,3.941,1.922c2.48,0.761,4.921,1.27,7.69,1.007c4.68-0.447,9.29-0.901,13.773-2.396
			c1.254-0.418,2.626-0.624,3.948-0.676c1.523-0.059,1.933-0.389,1.113-1.695c-1.062-1.701-1.48-3.82-3.355-5.031
			c-1.789-1.153-3.432-2.519-5.184-3.732c-0.689-0.479-1.347-0.867-0.828-1.989c-1.115,1.742-2.479,1.237-3.832,0.668
			c-0.494-0.208-0.941-0.516-1.415-0.779c0.068-0.098,0.134-0.195,0.199-0.293c1.017,0.248,2.032,0.494,3.045,0.741
			c0.02-0.075,0.041-0.151,0.057-0.228c-1.102-0.484-2.212-0.966-3.361-1.472c-0.172,0.521-0.411,1.04-0.513,1.587
			c-0.321,1.69-1.084,3.108-2.276,4.358c-3.655,3.838-9.028,1.794-10.18-2.182c-0.233-0.802-0.661-1.544-0.994-2.314
			c-0.892,0.674-1.581,1.194-2.17,1.64c-0.469-0.575-0.828-1.006-0.991-1.21c-0.859,0.565-1.427,1.129-2.108,1.354
			c-2.382,0.788-4.816,1.428-7.205,2.199C29.234,20.823,28.686,21.294,28.181,21.595z M68.931,32.888c-0.884,0-1.567,0-2.248,0
			c0.01,0.114,0.01,0.229,0.013,0.339C67.393,32.939,68.103,34.259,68.931,32.888z"/>
		<path fill-rule="evenodd" clip-rule="evenodd" fill="#E4007E" d="M2.733,10.199c0.715,0.074,1.303,0.073,1.856,0.203
			c0.865,0.21,1.718,0.486,2.57,0.772c3.576,1.194,6.946-0.034,10.271-1.03c4.624-1.379,9.156-3.071,13.766-4.504
			c1.672-0.519,3.451-0.681,5.184-1.004c2.639-0.492,5.274-1.014,7.922-1.465c0.996-0.169,2.02-0.218,3.038-0.249
			c9.581-0.294,18.903,0.838,27.257,5.952c2.202,1.344,3.951,3.469,5.771,5.367c0.62,0.646,0.87,1.678,1.19,2.568
			c0.093,0.25-0.17,0.623-0.316,1.098c1.789,2.038,1.585,5.049-0.451,5.739c-1.528-1.776-2.938-3.58-4.513-5.228
			c-3.282-3.441-6.975-6.239-11.797-7.229c-3.221-0.66-6.379-1.78-9.624-2.152c-3.866-0.444-7.81-0.481-11.707-0.364
			c-2.984,0.092-5.989,0.513-8.918,1.124c-3.248,0.678-6.4,1.787-9.622,2.626c-4.057,1.055-8.005,2.747-12.322,2.443
			c-3.18-0.224-6.369-0.515-8.696-3.14c-0.245-0.274-0.5-0.539-0.723-0.828C2.804,10.815,2.82,10.669,2.733,10.199z M49.877,5.39
			c0.09-1.149-0.959-1.792-2.488-1.672C48.265,4.307,48.977,4.787,49.877,5.39z"/>
		<path fill-rule="evenodd" clip-rule="evenodd" fill="#E4007E" d="M51.413,25.785c0.436-0.853-0.967-1.982,0.372-2.379
			c0.738-0.221,1.64,0.111,2.377,0.185c-0.112-0.474-0.519-1.186-0.338-1.692c0.218-0.63,0.92-1.092,1.401-1.607
			c1.147,0.19,2.284,0.378,3.575,0.594c-0.27,0.415-0.429,0.728-0.649,0.989c-1.725,2.021-3.385,4.048-6.077,4.949
			c-2.632,0.882-3.127,0.639-3.137-2.153c-0.001-0.158,0.017-0.312,0.028-0.436C50.688,23.234,50.701,25.027,51.413,25.785z"/>
		<path fill-rule="evenodd" clip-rule="evenodd" fill="#E4007E" d="M56.154,17.511c1.275,0.26,2.348,0.458,3.406,0.713
			c0.625,0.149,0.803,0.559,0.364,1.081c-0.371,0.438-0.874,1.225-1.197,1.167c-0.97-0.168-1.953-0.574-2.772-1.124
			C55.733,19.199,56.066,18.221,56.154,17.511z"/>
		<path fill-rule="evenodd" clip-rule="evenodd" fill="#E4007E" d="M45.613,26.13c0.536-0.796,1.076-1.589,1.861-2.752
			c0.607,1.346,1.107,2.456,1.616,3.583c-1.303,0.513-3.007,0.03-3.444-0.871L45.613,26.13z"/>
		<path fill-rule="evenodd" clip-rule="evenodd" fill="#E4007E" d="M45.646,26.09c-1.278,0.691-1.702-0.608-2.74-0.955
			c0.816-0.897,1.46-1.606,2.124-2.338c1.069,0.274,1.475,0.848,0.98,1.938c-0.198,0.433-0.27,0.929-0.397,1.395L45.646,26.09z"/>
		<path fill-rule="evenodd" clip-rule="evenodd" fill="#E4007E" d="M40.209,21.164c0.583-0.224,0.984-0.374,1.384-0.534
			c0.41-0.166,0.82-0.344,1.234-0.519c0.913,1.119,0.679,1.688-1.386,3.101C41.06,22.573,40.678,21.945,40.209,21.164z"/>
		<path fill-rule="evenodd" clip-rule="evenodd" fill="#E4007E" d="M40.281,20.772c-0.681-1.755,0.068-2.785,1.629-2.605
			c0.227,0.026,0.529,0.266,0.604,0.477c0.077,0.206-0.016,0.607-0.181,0.734C41.713,19.863,41.037,20.272,40.281,20.772z"/>
		<path fill-rule="evenodd" clip-rule="evenodd" fill="#E4007E" d="M44.389,22.381c-0.434,0.7-0.868,1.402-1.393,2.253
			c-0.477-0.39-0.857-0.695-1.376-1.116c0.908-0.577,1.65-1.05,2.394-1.522C44.136,22.124,44.262,22.252,44.389,22.381z"/>
	</g>
	<g>
		<path fill-rule="evenodd" clip-rule="evenodd" fill="#FFEB00" d="M50.987,36.864c0.215,0.542,0.419,1.049,0.676,1.688
			c-1.737,0.451-1.917-1.745-3.382-1.639c-0.049,0.516-0.109,1.111-0.165,1.709c-0.979-1.363-1.838-2.719-3.77-3.127
			c0,0.979,0,1.897,0,2.815c-0.126,0.039-0.247,0.075-0.371,0.114c-0.235-1.798-0.612-3.491-2.604-4.206c0,0.849,0,1.619,0,2.392
			c-0.777-1.303-1.25-2.777-2.859-3.57c0.059,0.79,0.109,1.435,0.157,2.08c-0.077,0.029-0.157,0.059-0.237,0.083
			c-0.873-1.366-1.747-2.733-2.624-4.1c-0.113,0.046-0.222,0.092-0.336,0.137c0,0.955,0,1.91,0,2.862
			c-0.857-1.609-0.792-3.679-2.612-4.739c-0.178,1.345-0.341,2.596-0.511,3.848c-0.117,0.005-0.24,0.01-0.362,0.015
			c0.017-1.979-0.051-3.938-1.397-5.6c-0.17,1.208-0.333,2.413-0.503,3.618c-0.542-1.723-0.085-3.627-1.29-5.519
			c-0.313,1.438-0.558,2.569-0.808,3.703c-0.125,0.003-0.253,0.006-0.384,0.01c0.065-1.861,0.373-3.772-0.895-5.501
			c-0.78,1.12-1.502,2.141-2.221,3.162c-0.098-0.049-0.196-0.095-0.294-0.144c0.348-1.019,0.694-2.037,1.101-3.21
			c-1.048,0.592-1.9,1.074-2.75,1.558c-0.059-0.078-0.111-0.158-0.167-0.238c0.745-0.783,1.489-1.57,2.235-2.357
			c-0.541-0.219-0.933-0.377-1.507-0.61c0.804-0.452,1.36-0.763,2.053-1.151c-0.727-0.93-1.44-1.845-2.164-2.776
			c0.614-0.273,0.614-0.273,1.809,0.851c-0.119-0.595-0.225-1.11-0.33-1.625c0.107-0.029,0.219-0.062,0.33-0.091
			c0.328,0.883,0.658,1.768,0.988,2.65c0.051-0.007,0.096-0.012,0.142-0.021c-0.082-1.002-0.163-2.002-0.245-3.005
			c0.114-0.027,0.229-0.049,0.343-0.075c0.21,1.004,0.421,2.008,0.722,3.443c1.747-1.58,3.257-2.94,4.762-4.3
			c0.059,0.018,0.113,0.033,0.165,0.05c-0.444,0.85-0.892,1.7-1.482,2.83c1.28-0.756,2.33-1.378,3.487-2.065
			c0.054,0.381,0.088,0.631,0.16,1.156c1.9-1.15,3.67-2.224,5.442-3.299c0.075,0.095,0.155,0.188,0.23,0.281
			c-0.813,0.688-1.627,1.374-2.441,2.059c0.051,0.105,0.1,0.211,0.15,0.315c1.992-0.985,3.982-1.969,5.974-2.952
			c0.067,0.115,0.134,0.23,0.206,0.349c-0.927,0.581-1.861,1.164-2.789,1.747c0.041,0.083,0.083,0.167,0.126,0.25
			c1.046-0.385,2.113-0.735,3.145-1.164c1.022-0.429,2.013-0.938,3.02-1.413c0.05,0.091,0.1,0.18,0.15,0.269
			c-0.449,0.339-0.899,0.678-1.349,1.017c0.036,0.091,0.077,0.18,0.111,0.27c2.01-0.675,4.012-1.35,6.294-2.121
			c-0.389,0.485-0.579,0.724-0.968,1.211c2.353-0.677,4.442-1.276,6.532-1.875c0.051,0.148,0.102,0.295,0.146,0.446
			c-1.403,0.47-2.814,0.94-4.225,1.411c0.029,0.125,0.055,0.253,0.081,0.381c1.069-0.173,2.139-0.335,3.21-0.522
			c1.118-0.196,2.24-0.416,3.208-0.598c1.557,1.676,3.574,0.503,5.325,1.118c-0.349,0.205-0.658,0.393-0.971,0.58
			c-0.008,0.129-0.02,0.256-0.025,0.384c2.001,0.311,4.005,0.619,6.008,0.928c0.015,0.107,0.024,0.213,0.043,0.318
			c-0.928,0.144-1.855,0.29-3.12,0.485c2.098,1.309,4.103,1.674,6.238,1.562c0.005,0.132,0.008,0.266,0.013,0.398
			c-1.165,0.202-2.334,0.4-3.804,0.654c0.803,0.319,1.404,0.613,2.037,0.802c0.816,0.243,1.666,0.379,2.48,0.625
			c0.187,0.056,0.291,0.37,0.435,0.566c-0.224,0.059-0.456,0.183-0.671,0.161c-0.49-0.054-0.967-0.181-1.574-0.3
			c0.78,1.347,1.517,2.47,2.106,3.668c0.865,1.767,1.723,3.554,2.409,5.398c0.478,1.278-0.979,2.962-2.537,3.038
			c-0.873,0.043-1.76-0.136-2.642-0.163c-0.394-0.015-0.783,0.1-1.179,0.151c-0.018,0.125-0.037,0.244-0.061,0.363
			c0.318,0.192,0.634,0.398,0.959,0.574c0.348,0.188,0.712,0.343,1.005,0.751c-1.358-0.28-2.722-0.563-4.434-0.919
			c0.805,0.581,1.323,0.958,2.112,1.528c-2.43-0.459-4.495-0.848-6.556-1.237c-0.037,0.101-0.08,0.202-0.114,0.302
			c0.935,0.751,1.863,1.5,2.801,2.253c-0.053,0.102-0.102,0.201-0.157,0.302c-1.482-0.477-2.96-0.953-4.736-1.526
			c0.392,0.568,0.615,0.895,0.844,1.229c-2.141,0.426-2.38,0.309-3.174-1.517c-0.335,0.104-0.676,0.216-1.072,0.343
			c0.256,0.389,0.511,0.777,0.764,1.162c-0.066,0.126-0.136,0.255-0.202,0.381c-1.288-0.501-2.571-1.004-4.121-1.608
			c0.384,0.62,0.62,0.999,0.902,1.456C53.495,39.106,52.68,36.672,50.987,36.864z M29.378,22.335c0.807,0.5,1.384,0.828,1.933,1.203
			c0.541,0.374,1.012,0.846,1.572,1.176c2.932,1.744,5.861,3.484,8.825,5.166c1.271,0.722,2.561,1.499,3.938,1.922
			c2.488,0.759,4.928,1.271,7.693,1.009c4.681-0.447,9.29-0.903,13.773-2.398c1.259-0.418,2.622-0.624,3.948-0.674
			c1.522-0.061,1.93-0.391,1.118-1.693c-1.064-1.705-1.486-3.824-3.362-5.035c-1.784-1.151-3.43-2.517-5.181-3.732
			c-0.687-0.477-1.349-0.868-0.829-1.987c-1.115,1.742-2.483,1.234-3.829,0.667c-0.496-0.207-0.95-0.514-1.418-0.777
			c0.064-0.098,0.13-0.195,0.197-0.295c1.019,0.248,2.031,0.495,3.048,0.741c0.019-0.075,0.036-0.151,0.056-0.227
			c-1.104-0.484-2.207-0.968-3.36-1.475c-0.174,0.522-0.413,1.042-0.518,1.589c-0.318,1.688-1.084,3.11-2.272,4.358
			c-3.657,3.837-9.032,1.793-10.182-2.183c-0.233-0.801-0.658-1.544-0.993-2.314c-0.892,0.676-1.579,1.196-2.168,1.64
			c-0.47-0.573-0.828-1.005-0.995-1.209c-0.857,0.564-1.422,1.129-2.106,1.354c-2.386,0.79-4.817,1.431-7.206,2.202
			C30.429,21.564,29.881,22.036,29.378,22.335z M70.124,33.63c-0.887,0-1.567,0-2.242,0c0.002,0.114,0.004,0.228,0.009,0.34
			C68.586,33.683,69.296,35,70.124,33.63z"/>
		<path fill-rule="evenodd" clip-rule="evenodd" fill="#FFEB00" d="M3.93,10.941c0.715,0.073,1.3,0.072,1.852,0.204
			c0.867,0.208,1.721,0.485,2.57,0.77c3.579,1.196,6.946-0.034,10.273-1.026c4.627-1.383,9.156-3.071,13.771-4.505
			c1.668-0.519,3.45-0.68,5.176-1.004c2.644-0.492,5.277-1.014,7.925-1.465c0.996-0.169,2.021-0.219,3.037-0.25
			c9.584-0.293,18.905,0.84,27.26,5.951c2.194,1.345,3.949,3.469,5.77,5.366c0.622,0.648,0.87,1.679,1.193,2.57
			c0.089,0.249-0.171,0.624-0.318,1.099c1.79,2.037,1.583,5.047-0.457,5.738c-1.519-1.776-2.932-3.581-4.51-5.229
			c-3.279-3.438-6.972-6.238-11.793-7.226c-3.223-0.661-6.375-1.782-9.625-2.153c-3.866-0.443-7.806-0.481-11.706-0.363
			c-2.98,0.09-5.991,0.512-8.92,1.124c-3.246,0.679-6.402,1.786-9.622,2.625c-4.059,1.055-8.005,2.748-12.324,2.443
			c-3.177-0.224-6.368-0.516-8.694-3.139c-0.245-0.275-0.498-0.54-0.724-0.828C4,11.559,4.015,11.412,3.93,10.941z M51.071,6.132
			c0.089-1.15-0.961-1.794-2.489-1.67C49.459,5.048,50.172,5.529,51.071,6.132z"/>
		<path fill-rule="evenodd" clip-rule="evenodd" fill="#FFEB00" d="M52.608,26.526c0.438-0.851-0.967-1.979,0.374-2.379
			c0.736-0.217,1.641,0.112,2.375,0.185c-0.11-0.472-0.521-1.183-0.343-1.693c0.219-0.629,0.924-1.089,1.406-1.606
			c1.147,0.191,2.28,0.378,3.577,0.594c-0.271,0.416-0.433,0.729-0.653,0.99c-1.721,2.019-3.383,4.048-6.077,4.947
			c-2.63,0.882-3.122,0.641-3.138-2.151c0-0.157,0.024-0.313,0.029-0.438C51.88,23.979,51.895,25.771,52.608,26.526z"/>
		<path fill-rule="evenodd" clip-rule="evenodd" fill="#FFEB00" d="M57.35,18.251c1.271,0.263,2.346,0.458,3.406,0.715
			c0.623,0.149,0.803,0.559,0.362,1.082c-0.373,0.437-0.872,1.224-1.193,1.167c-0.972-0.17-1.955-0.575-2.774-1.123
			C56.927,19.941,57.262,18.962,57.35,18.251z"/>
		<path fill-rule="evenodd" clip-rule="evenodd" fill="#FFEB00" d="M46.806,26.872c0.538-0.797,1.074-1.59,1.864-2.753
			c0.607,1.348,1.11,2.459,1.616,3.583c-1.303,0.513-3.011,0.029-3.439-0.869L46.806,26.872z"/>
		<path fill-rule="evenodd" clip-rule="evenodd" fill="#FFEB00" d="M46.847,26.833c-1.284,0.692-1.707-0.608-2.74-0.957
			c0.81-0.897,1.456-1.606,2.119-2.338c1.068,0.278,1.473,0.85,0.977,1.94c-0.196,0.434-0.268,0.927-0.396,1.394L46.847,26.833z"/>
		<path fill-rule="evenodd" clip-rule="evenodd" fill="#FFEB00" d="M41.404,21.906c0.582-0.224,0.983-0.373,1.385-0.535
			c0.41-0.166,0.819-0.344,1.232-0.518c0.916,1.12,0.685,1.688-1.384,3.099C42.253,23.314,41.873,22.688,41.404,21.906z"/>
		<path fill-rule="evenodd" clip-rule="evenodd" fill="#FFEB00" d="M41.481,21.516c-0.689-1.757,0.065-2.785,1.622-2.605
			c0.227,0.024,0.532,0.266,0.607,0.476c0.073,0.207-0.017,0.606-0.18,0.736C42.906,20.605,42.232,21.013,41.481,21.516z"/>
		<path fill-rule="evenodd" clip-rule="evenodd" fill="#FFEB00" d="M45.584,23.124c-0.435,0.7-0.865,1.4-1.395,2.253
			c-0.477-0.389-0.854-0.695-1.371-1.117c0.904-0.578,1.645-1.048,2.391-1.521C45.331,22.865,45.457,22.995,45.584,23.124z"/>
	</g>
</g>
<g>
</g>
<g>
</g>
<g>
</g>
<g>
</g>
<g>
</g>
<g>
</g>
<g>
</g>
<g>
</g>
<g>
</g>
<g>
</g>
<g>
</g>
<g>
</g>
<g>
</g>
<g>
</g>
<g>
</g>
</svg>
